<?xml version="1.0" standalone="no"?>
<!DOCTYPE svg PUBLIC "-//W3C//DTD SVG 1.1//EN" "http://www.w3.org/Graphics/SVG/1.1/DTD/svg11.dtd" >
<svg xmlns="http://www.w3.org/2000/svg" xmlns:xlink="http://www.w3.org/1999/xlink" version="1.1">
<metadata></metadata>
<defs>
<font id="unit-boldbold" horiz-adv-x="1069" >
<font-face units-per-em="2048" ascent="1536" descent="-512" />
<missing-glyph horiz-adv-x="462" />
<glyph horiz-adv-x="0" />
<glyph horiz-adv-x="0" />
<glyph unicode="&#xd;" horiz-adv-x="462" />
<glyph unicode=" "  horiz-adv-x="462" />
<glyph unicode="&#x09;" horiz-adv-x="462" />
<glyph unicode="&#xa0;" horiz-adv-x="462" />
<glyph unicode="!" horiz-adv-x="610" d="M137 1423h342l-57 -999h-219zM141 150q0 72 50.5 123t121.5 51q72 0 122 -51.5t50 -122.5q0 -72 -50 -123.5t-122 -51.5t-122 51.5t-50 123.5z" />
<glyph unicode="&#x22;" horiz-adv-x="978" d="M131 850v600h272v-600h-272zM575 850v600h271v-600h-271z" />
<glyph unicode="#" horiz-adv-x="1101" d="M80 356v191h172l33 239h-152v191h178l47 336h193l-47 -336h176l47 336h195l-48 -336h146v-191h-172l-33 -239h154v-191h-178l-50 -356h-192l47 356h-176l-47 -356h-195l49 356h-147zM446 547h177l32 239h-176z" />
<glyph unicode="$" horiz-adv-x="1038" d="M51 100l105 236q70 -47 150.5 -75t164.5 -28q100 0 139 35t39 107q0 39 -8 63.5t-28.5 41t-53.5 28.5t-82 27q-82 25 -150.5 54t-118.5 75.5t-78 116t-28 171.5q0 176 84 266.5t226 112.5v273h237v-273q78 -10 140.5 -32.5t115.5 -59.5l-114 -223q-59 35 -116 52t-134 17 q-137 0 -138 -118q0 -33 5.5 -54.5t23 -37t47 -27.5t78.5 -27q80 -23 152.5 -50.5t128 -73.5t88 -118.5t32.5 -185.5q0 -166 -76.5 -272.5t-258.5 -134.5v-254h-238v250q-104 12 -191.5 42.5t-142.5 75.5z" />
<glyph unicode="%" horiz-adv-x="1787" d="M86 983q0 174 95 264t249 90t246 -91t92 -265t-95 -264t-249 -90t-246 91t-92 265zM330 987q0 -111 21.5 -150.5t76.5 -39.5q53 0 74.5 41t21.5 143q0 111 -21.5 149.5t-76.5 38.5q-53 0 -74.5 -39.5t-21.5 -142.5zM362 0l812 1313h251l-811 -1313h-252zM1020 330 q0 174 95 265t249 91t246 -91t92 -265t-95 -264.5t-249 -90.5t-246 90.5t-92 264.5zM1264 334q0 -111 21.5 -150t74.5 -39q55 0 76.5 40t21.5 143q0 111 -21.5 150.5t-76.5 39.5t-75.5 -40t-20.5 -144z" />
<glyph unicode="&#x26;" horiz-adv-x="1366" d="M70 389q0 150 72.5 244t219.5 155q-72 78 -102.5 155t-30.5 161q0 154 100.5 250t286.5 96q174 0 274.5 -93t100.5 -249q0 -123 -72.5 -202t-197.5 -142l217 -266q23 53 40 113.5t34 125.5l221 -59q-25 -109 -57.5 -204t-75.5 -175l243 -299h-366l-62 78 q-70 -51 -154.5 -78t-193.5 -27q-236 0 -366.5 105.5t-130.5 310.5zM385 410q0 -104 50 -158.5t161 -54.5q98 0 176 59l-293 369q-53 -35 -73.5 -85.5t-20.5 -129.5zM508 1110q0 -51 19.5 -89t47.5 -77l33 -41q72 51 95.5 92t23.5 103q0 66 -23.5 101.5t-82.5 35.5t-86 -33 t-27 -92z" />
<glyph unicode="'" horiz-adv-x="532" d="M131 850v600h270v-600h-270z" />
<glyph unicode="(" horiz-adv-x="735" d="M100 618q0 180 23.5 336t81 282t155 220t244.5 150l78 -181q-61 -41 -113.5 -91t-90.5 -135t-59.5 -215t-21.5 -331q0 -207 19.5 -347t55.5 -232t89 -148.5t121 -97.5l-78 -180q-139 53 -235.5 142t-155.5 211t-86 277.5t-27 339.5z" />
<glyph unicode=")" horiz-adv-x="735" d="M49 -172q61 41 113.5 90t91.5 132t61.5 213t22.5 333q0 207 -19.5 346t-57.5 233.5t-91 151.5t-121 98l78 181q139 -53 236.5 -143.5t158 -213.5t87 -278.5t26.5 -341.5q0 -178 -24.5 -332t-83 -280t-157 -220t-245.5 -149z" />
<glyph unicode="*" horiz-adv-x="1005" d="M84 1047l76 210l239 -100v285h226v-283l237 86l76 -209l-268 -75l182 -232l-178 -131l-162 223l-162 -223l-178 131l180 227z" />
<glyph unicode="+" horiz-adv-x="1187" d="M123 489v273h330v358h284v-358h328v-273h-328v-364h-284v364h-330z" />
<glyph unicode="," horiz-adv-x="593" d="M106 170q0 76 49.5 125t120.5 49q90 0 147.5 -62.5t57.5 -172.5q0 -168 -84 -266.5t-241 -133.5l-43 144q66 23 101.5 54.5t37.5 82.5q-53 10 -99.5 53t-46.5 127z" />
<glyph unicode="-" horiz-adv-x="659" d="M94 420v291h469v-291h-469z" />
<glyph unicode="." horiz-adv-x="581" d="M106 162q0 76 53.5 129t129.5 53q78 0 132 -53t54 -129q0 -78 -54 -132.5t-132 -54.5q-76 0 -129.5 54.5t-53.5 132.5z" />
<glyph unicode="/" horiz-adv-x="778" d="M23 -317l501 1888h232l-502 -1888h-231z" />
<glyph unicode="0" horiz-adv-x="1296" d="M92 653q0 178 41 308.5t115 214.5t176 123.5t225 39.5q125 0 227.5 -39.5t175 -122.5t112.5 -212t40 -310q0 -180 -40 -309t-112.5 -211t-175 -121t-227.5 -39t-227.5 39t-176 121t-113.5 210t-40 308zM416 659q0 -129 13 -216t41 -139t73 -74.5t106 -22.5t105.5 22.5 t72 74.5t41 139t13.5 216q0 127 -13.5 213t-41 138.5t-71.5 75t-106 22.5q-61 0 -106 -22.5t-73 -75t-41 -138.5t-13 -213z" />
<glyph unicode="1" horiz-adv-x="978" d="M80 981l393 336h213v-1086h213v-231h-752v231h240v691l-221 -113z" />
<glyph unicode="2" horiz-adv-x="1058" d="M66 1225q74 45 173 79.5t246 34.5q223 0 342 -102t119 -307q0 -94 -24.5 -175t-84 -161t-159.5 -164t-252 -186h545v-244h-891v262q158 123 262 212t166.5 161t88.5 132t26 126q0 104 -44 146t-130 42t-153 -21.5t-142 -62.5z" />
<glyph unicode="3" horiz-adv-x="1056" d="M53 -70l51 238q72 -16 151 -28.5t148 -12.5q135 0 184.5 53t49.5 166q0 109 -51 151t-176 42h-119v233h123q111 0 154.5 39t43.5 131q0 76 -38.5 112t-145.5 36q-76 0 -144.5 -17.5t-131.5 -46.5l-70 221q78 41 177 66.5t235 25.5q201 0 315.5 -92t114.5 -270 q0 -113 -44 -196t-155 -124q123 -37 182.5 -126t59.5 -207q0 -98 -28 -183.5t-90.5 -147t-162 -96t-240.5 -34.5q-119 0 -217 19.5t-176 47.5z" />
<glyph unicode="4" horiz-adv-x="1241" d="M92 182v267l361 864h311l-369 -883h334v483l299 48v-531h135v-248h-135v-293h-299v293h-637z" />
<glyph unicode="5" horiz-adv-x="1097" d="M76 -63l57 235q70 -23 136.5 -36t136.5 -13q143 0 205.5 55t62.5 180q0 119 -60.5 163t-203.5 44q-74 0 -132.5 -9t-123.5 -30l59 787h723v-256h-471l-21 -258q41 10 105 10q92 0 174 -27.5t143.5 -82t96 -135.5t34.5 -185q0 -242 -132 -379t-425 -137q-121 0 -207 22.5 t-157 51.5z" />
<glyph unicode="6" horiz-adv-x="1204" d="M94 559q0 381 190.5 612.5t608.5 309.5l61 -224q-111 -31 -194.5 -62.5t-145 -74.5t-102.5 -104.5t-63 -153.5q49 31 102 50.5t131 19.5q217 0 329.5 -118t112.5 -347q0 -119 -37.5 -211t-105.5 -154.5t-159 -95.5t-197 -33q-121 0 -219.5 35t-167 107.5t-106.5 183.5 t-38 260zM416 520q0 -166 47 -235.5t162 -69.5q86 0 135 59.5t49 188.5q0 121 -45.5 176t-147.5 55q-66 0 -109.5 -17.5t-88.5 -51.5q-2 -25 -2 -50.5v-54.5z" />
<glyph unicode="7" horiz-adv-x="1040" d="M78 1044v267h883v-281q-57 -59 -130 -169.5t-139.5 -262.5t-117 -339t-60.5 -402l-303 43q18 215 67.5 394t114 321.5t138 250t141.5 178.5h-594z" />
<glyph unicode="8" horiz-adv-x="1198" d="M90 381q0 121 58.5 207t181.5 133q-115 59 -154 146t-39 198q0 96 35 168t97.5 120t149.5 72.5t191 24.5q102 0 188.5 -25.5t148 -73.5t95 -119t33.5 -161q0 -109 -52 -187.5t-173 -125.5q150 -63 204 -154.5t54 -212.5q0 -201 -138 -309.5t-386 -108.5q-137 0 -232.5 35 t-153 92.5t-83 131t-25.5 149.5zM385 393q0 -113 53.5 -152.5t149.5 -39.5q104 0 152 46t48 124q0 37 -7 66.5t-26.5 56t-54 48t-90.5 42.5l-86 30q-72 -39 -105.5 -91t-33.5 -130zM442 1071q0 -59 25 -105t115 -85l43 -19q90 41 121.5 90t31.5 119q0 78 -44 115t-128 37 q-78 0 -121 -36t-43 -116z" />
<glyph unicode="9" horiz-adv-x="1204" d="M80 856q0 115 38 205t105.5 151.5t159.5 94t199 32.5q121 0 219 -34.5t167.5 -106.5t106.5 -181.5t37 -260.5q0 -190 -42 -343t-139 -268.5t-254 -193.5t-386 -119l-64 231q117 33 207 64t154.5 74t105.5 105.5t64 154.5q-47 -35 -106.5 -57.5t-145.5 -22.5 q-211 0 -318.5 121t-107.5 354zM397 850q0 -125 42.5 -180.5t146.5 -55.5q66 0 110.5 17.5t89.5 50.5q2 29 2 56.5v58.5q0 166 -48 233.5t-160 67.5q-88 0 -135.5 -59.5t-47.5 -188.5z" />
<glyph unicode=":" horiz-adv-x="651" d="M135 162q0 76 53.5 129t128.5 53q78 0 132.5 -53t54.5 -129q0 -78 -54.5 -132.5t-132.5 -54.5q-76 0 -129 54.5t-53 132.5zM135 735q0 74 53.5 128.5t128.5 54.5q78 0 132.5 -54.5t54.5 -128.5q0 -78 -54.5 -132t-132.5 -54q-76 0 -129 54t-53 132z" />
<glyph unicode=";" horiz-adv-x="651" d="M135 170q0 76 48 125t120 49q92 0 148.5 -62.5t56.5 -172.5q0 -168 -84 -266.5t-242 -133.5l-41 144q66 23 102 54.5t38 82.5q-53 10 -99.5 53t-46.5 127zM135 735q0 74 53.5 128.5t128.5 54.5q78 0 132.5 -54.5t54.5 -128.5q0 -78 -54.5 -132t-132.5 -54q-76 0 -129 54 t-53 132z" />
<glyph unicode="&#x3c;" horiz-adv-x="921" d="M109 537v161l559 435l159 -209l-399 -308l399 -311l-159 -205z" />
<glyph unicode="=" horiz-adv-x="1159" d="M123 248v272h913v-272h-913zM123 715v272h913v-272h-913z" />
<glyph unicode="&#x3e;" horiz-adv-x="921" d="M94 311l398 305l-398 312l160 205l559 -437v-159l-559 -437z" />
<glyph unicode="?" horiz-adv-x="921" d="M68 1325q74 55 160.5 89t207.5 34q84 0 158 -18.5t127 -61.5t84 -110.5t31 -165.5q0 -139 -57.5 -219t-160.5 -142q-59 -35 -77.5 -74t-18.5 -110v-123h-248v168q0 63 8.5 108t25 80t42 60.5t62.5 50.5q72 47 97.5 83t25.5 99q0 66 -33 95.5t-105 29.5t-126 -25.5 t-83 -50.5zM229 150q0 72 50.5 123t121.5 51q72 0 122 -51.5t50 -122.5q0 -72 -50 -123.5t-122 -51.5t-122 51.5t-50 123.5z" />
<glyph unicode="@" horiz-adv-x="1765" d="M78 414q0 199 61.5 366.5t173 290.5t269 191.5t350.5 68.5q174 0 313 -50t237.5 -145.5t151 -232.5t52.5 -311q0 -168 -37 -286t-98.5 -190.5t-141.5 -105.5t-166 -33q-133 0 -194.5 53.5t-85.5 141.5q-53 -66 -123 -116t-158 -50q-63 0 -111.5 27.5t-75 89t-28.5 160 t27 237.5q25 119 60.5 198t82.5 127t103.5 67.5t119.5 19.5q78 0 120 -32t69 -54l12 65h254l-131 -618q-14 -72 6 -102.5t65 -30.5q39 0 76 20.5t66.5 70.5t47 133t17.5 208q0 283 -128 415t-414 132q-145 0 -258 -51.5t-190 -146.5t-117 -228t-40 -299q0 -172 38 -287 t107.5 -184.5t169 -98t224.5 -28.5q82 0 151.5 13t141.5 40l61 -178q-82 -35 -168 -53.5t-186 -18.5q-170 0 -312.5 48t-245.5 146.5t-160.5 248t-57.5 352.5zM731 259q4 -34 18 -47t39 -13q41 0 76 28.5t68 61.5l84 411q-16 14 -40 29.5t-58 15.5q-33 0 -56.5 -10 t-41 -38.5t-33 -79t-31.5 -130.5q-18 -84 -23.5 -139t-1.5 -89z" />
<glyph unicode="A" horiz-adv-x="1173" d="M33 0l405 1423h318l385 -1423h-326l-65 289h-334l-70 -289h-313zM473 520h223l-55 240q-23 96 -34 170t-17 127h-2q-8 -53 -19.5 -127t-36.5 -170z" />
<glyph unicode="B" horiz-adv-x="1177" d="M139 0v1423h535q172 0 272.5 -87t100.5 -277q0 -117 -38 -187.5t-147 -113.5q100 -23 169 -105t69 -235q0 -217 -108.5 -317.5t-338.5 -100.5h-514zM440 250h160q90 0 130 44t40 140q0 86 -36 132t-134 46h-160v-362zM440 854h152q82 0 113.5 42t31.5 122 q0 78 -35.5 115.5t-113.5 37.5h-148v-317z" />
<glyph unicode="C" horiz-adv-x="1105" d="M98 709q0 207 37 348t109.5 229t178 126t241.5 38q123 0 215 -30.5t151 -80.5l-121 -233q-47 41 -104 62.5t-125 21.5q-74 0 -122 -19.5t-74.5 -71.5t-37 -142.5t-10.5 -229.5q0 -150 14.5 -245t44 -150.5t75.5 -77t112 -21.5q78 0 135 27t103 74l133 -223 q-66 -59 -154 -98.5t-229 -39.5q-293 0 -432.5 175.5t-139.5 560.5z" />
<glyph unicode="D" horiz-adv-x="1249" d="M139 0v1423h459q135 0 238.5 -35.5t173 -117.5t105.5 -215t36 -328q0 -176 -27.5 -311t-91 -227.5t-167 -140.5t-255.5 -48h-471zM446 262h146q61 0 105 18.5t71 69.5t39 144.5t12 242.5q0 133 -13 216t-41 130t-72 64.5t-107 17.5h-140v-903z" />
<glyph unicode="E" horiz-adv-x="1013" d="M145 0v1423h762v-260h-454v-297h362v-252h-362v-352h489v-262h-797z" />
<glyph unicode="F" horiz-adv-x="960" d="M145 0v1423h748v-260h-440v-297h346v-252h-346v-614h-308z" />
<glyph unicode="G" horiz-adv-x="1251" d="M98 709q0 205 38 346t110.5 229t178 127t243.5 39q137 0 236.5 -36t191.5 -114l-164 -219q-61 51 -115.5 80t-132.5 29q-70 0 -118 -19.5t-77.5 -71.5t-42 -142.5t-12.5 -229.5q0 -150 13.5 -246t41 -151.5t73.5 -77t110 -21.5q53 0 91 14.5t66 37.5v260h-178v252h482 v-795h-222l-32 84q-51 -53 -118 -82t-140 -29q-248 0 -385.5 174.5t-137.5 561.5z" />
<glyph unicode="H" horiz-adv-x="1245" d="M145 0v1423h308v-540h340v540h307v-1423h-307v621h-340v-621h-308z" />
<glyph unicode="I" horiz-adv-x="784" d="M98 0v168l138 31v1024l-138 30v170h588v-170l-137 -30v-1024l137 -31v-168h-588z" />
<glyph unicode="J" horiz-adv-x="622" d="M-12 -162q53 37 87 66.5t53 69.5t27.5 97.5t8.5 151.5v1200h307v-1304q0 -199 -89 -315.5t-288 -176.5z" />
<glyph unicode="K" horiz-adv-x="1169" d="M145 0v1423h308v-637l333 637h328l-369 -649l406 -774h-346l-352 745v-745h-308z" />
<glyph unicode="L" horiz-adv-x="966" d="M145 0v1423h304v-1161h436v-262h-740z" />
<glyph unicode="M" horiz-adv-x="1527" d="M145 0v1423h408l156 -610q25 -86 35 -170t16 -156h2q6 72 16 156t33 170l141 610h430v-1423h-295v621q0 176 7.5 317t13.5 219h-4q-6 -43 -15.5 -100.5t-22.5 -123t-28.5 -133t-31.5 -132.5l-121 -432h-279l-117 411q-16 61 -31.5 133t-27.5 141.5t-22.5 132t-16.5 103.5 h-2q4 -39 7 -101.5t7.5 -135t6.5 -151.5t2 -155v-614h-267z" />
<glyph unicode="N" horiz-adv-x="1251" d="M145 0v1423h291l295 -630q37 -78 68.5 -168t54.5 -162h2q-4 33 -9 78t-9 96t-7.5 103.5t-3.5 101.5v581h277v-1423h-307l-275 612q-45 98 -76.5 183.5t-54.5 156.5h-2q4 -27 9 -69.5t11.5 -98t10.5 -119t4 -128.5v-537h-279z" />
<glyph unicode="O" horiz-adv-x="1323" d="M98 709q0 389 143.5 565t422.5 176q281 0 421 -175t140 -562q0 -391 -139 -565.5t-422 -174.5q-281 0 -423.5 173t-142.5 563zM430 715q0 -139 11.5 -234.5t38 -153t71.5 -82t111 -24.5t110.5 24.5t71 82t38 152.5t11.5 235q0 139 -11.5 231t-38 149.5t-71.5 81 t-110 23.5q-66 0 -111 -23.5t-71.5 -81t-38 -149.5t-11.5 -231z" />
<glyph unicode="P" horiz-adv-x="1150" d="M145 0v1423h418q127 0 223.5 -21.5t162 -72.5t99 -135t33.5 -209q0 -106 -21.5 -191t-76.5 -145.5t-151.5 -93.5t-243.5 -33h-135v-522h-308zM453 770h131q92 0 137 39t45 154q0 123 -43 162.5t-127 39.5h-143v-395z" />
<glyph unicode="Q" horiz-adv-x="1323" d="M98 709q0 389 143.5 565t422.5 176q281 0 421 -175t140 -562q0 -254 -59.5 -414t-223.5 -236l313 -94l-108 -248l-664 261q-98 39 -170.5 96t-121 144t-71 206t-22.5 281zM430 715q0 -139 11.5 -235.5t38 -156t71.5 -85t111 -25.5t110.5 25.5t71 85t38 155.5t11.5 236 q0 139 -11.5 231t-38 149.5t-71.5 81t-110 23.5q-66 0 -111 -23.5t-71.5 -81t-38 -149.5t-11.5 -231z" />
<glyph unicode="R" horiz-adv-x="1193" d="M145 0v1423h447q137 0 232.5 -26.5t154.5 -78.5t86 -128t27 -174q0 -88 -16.5 -150.5t-49.5 -105.5t-79 -70.5t-107 -44.5q70 -23 111.5 -87t72.5 -171l113 -387h-328l-111 406q-14 53 -29.5 86.5t-36 53t-48 27t-68.5 7.5h-63v-580h-308zM453 807h151q94 0 129 46 t35 146q0 92 -38 129t-128 37h-149v-358z" />
<glyph unicode="S" horiz-adv-x="1114" d="M68 104l102 238q74 -53 156 -81t170 -28q109 0 156.5 45.5t47.5 122.5q0 43 -11 71t-34.5 48.5t-59.5 35.5t-85 30q-88 29 -159.5 61.5t-122 82.5t-77 123t-26.5 179q0 109 32.5 187.5t92 130t142.5 76t183 24.5q129 0 217.5 -25.5t168.5 -72.5l-109 -230 q-66 41 -120 55.5t-132 14.5q-164 0 -164 -135q0 -37 7.5 -62.5t25.5 -45t49 -34t80 -30.5q86 -27 163 -57.5t135 -81t92 -127t34 -193.5q0 -100 -25.5 -184t-84 -143.5t-154 -92.5t-234.5 -33q-141 0 -263 39t-193 92z" />
<glyph unicode="T" horiz-adv-x="1048" d="M66 1161v262h917v-262h-307v-1161h-303v1161h-307z" />
<glyph unicode="U" horiz-adv-x="1249" d="M133 469v954h307v-991q0 -100 29 -148t129 -48q68 0 117 19t80 46v1122h307v-1423h-219l-39 98q-49 -53 -120.5 -89t-184.5 -36q-94 0 -169 27t-127.5 86t-81 153.5t-28.5 229.5z" />
<glyph unicode="V" horiz-adv-x="1196" d="M35 1423h330l172 -698q10 -39 18 -71.5t14 -64.5t12.5 -68t12.5 -79h2q8 43 14 78t13.5 66.5t15.5 64.5t18 72l189 700h317l-434 -1423h-274z" />
<glyph unicode="W" horiz-adv-x="1634" d="M53 1423h320l88 -483q16 -82 26.5 -171t17.5 -167t10 -138.5t5 -84.5h2q6 84 21.5 214t52.5 314l100 516h262l101 -514q12 -59 22.5 -127.5t19.5 -138.5t16 -137.5t13 -126.5h3q8 104 19 252.5t36 314.5l82 477h311l-283 -1423h-315l-115 596q-20 111 -31.5 216.5 t-15.5 174.5h-4q-2 -33 -6 -78t-10 -97t-13.5 -107.5t-17.5 -106.5l-117 -598h-321z" />
<glyph unicode="X" horiz-adv-x="1171" d="M25 0l393 750l-344 673h356l168 -399l166 399h340l-346 -657l391 -766h-356l-218 489l-210 -489h-340z" />
<glyph unicode="Y" horiz-adv-x="1134" d="M29 1423h338l129 -315q29 -72 46 -129t29 -123q16 66 31.5 124t42.5 122l133 321h326l-389 -813v-610h-307v604z" />
<glyph unicode="Z" horiz-adv-x="1046" d="M78 0v217l528 946h-479v260h836v-225l-525 -936h525v-262h-885z" />
<glyph unicode="[" horiz-adv-x="659" d="M131 -319v1818h453v-217h-181v-1384h181v-217h-453z" />
<glyph unicode="\" horiz-adv-x="780" d="M25 1571h229l502 -1888h-230z" />
<glyph unicode="]" horiz-adv-x="661" d="M76 -102h180v1384h-180v217h454v-1818h-454v217z" />
<glyph unicode="^" horiz-adv-x="1128" d="M117 846l319 604h256l320 -604h-303l-146 295l-149 -295h-297z" />
<glyph unicode="_" horiz-adv-x="772" d="M10 -102h750v-217h-750v217z" />
<glyph unicode="`" d="M231 1358l138 237l397 -295l-92 -157z" />
<glyph unicode="a" horiz-adv-x="991" d="M68 309q0 184 109.5 263t344.5 79h64v39q0 78 -21.5 114t-95.5 36q-76 0 -144.5 -28t-127.5 -62l-105 196q86 59 183.5 93t222.5 34q199 0 287.5 -75.5t88.5 -262.5v-735h-227q-2 0 -10 25.5t-19 56.5q-41 -45 -98 -77t-143 -32q-166 0 -237.5 90.5t-71.5 245.5zM354 313 q0 -78 23 -109.5t80 -31.5q43 0 73.5 16.5t55.5 38.5v246h-15q-70 0 -112.5 -9t-65 -28.5t-31 -49.5t-8.5 -73z" />
<glyph unicode="b" horiz-adv-x="1079" d="M123 0v1499h289v-524q33 31 96 64.5t143 33.5q84 0 148.5 -24.5t108.5 -85t67.5 -162t23.5 -254.5q0 -166 -22.5 -275.5t-66.5 -176t-110.5 -94.5t-154.5 -28q-86 0 -153.5 38t-108.5 85l-25 -96h-235zM412 260q23 -23 56.5 -39t80.5 -16q43 0 69.5 13t43 49t22.5 99.5 t6 163.5q0 96 -5 158t-20.5 95.5t-40 46t-65.5 12.5q-49 0 -84 -17.5t-63 -42.5v-522z" />
<glyph unicode="c" horiz-adv-x="884" d="M76 528q0 291 110.5 418t325.5 127q104 0 182 -29.5t144 -91.5l-142 -188q-35 37 -70.5 57.5t-88.5 20.5q-39 0 -68 -11.5t-46 -44t-25.5 -94t-8.5 -160.5q0 -98 7 -161.5t25.5 -99t48.5 -50t75 -14.5q61 0 97 21.5t77 56.5l121 -193q-57 -53 -134.5 -86t-181.5 -33 q-229 0 -338.5 134.5t-109.5 420.5z" />
<glyph unicode="d" horiz-adv-x="1081" d="M80 512q0 164 21.5 272.5t64.5 173t108.5 90t153.5 25.5q82 0 142.5 -31.5t97.5 -66.5v524h288v-1499h-235l-25 98q-59 -61 -117.5 -93t-138.5 -32q-82 0 -149.5 27t-113.5 89.5t-71.5 165.5t-25.5 257zM391 516q0 -96 5 -157.5t19.5 -95.5t40 -46t64.5 -12q51 0 85 16.5 t63 40.5v522q-23 23 -56.5 40.5t-79.5 17.5q-43 0 -70.5 -13.5t-43 -49.5t-21.5 -99.5t-6 -163.5z" />
<glyph unicode="e" horiz-adv-x="1028" d="M76 528q0 147 29.5 252t86 169.5t138.5 94t184 29.5q238 0 338 -134t100 -423v-84h-563q4 -72 16.5 -117t35 -70.5t56 -34.5t81.5 -9q76 0 129 26.5t100 63.5l125 -193q-57 -53 -146 -89t-202 -36q-262 0 -385 130t-123 425zM389 629h270q-4 127 -27.5 181t-107.5 54 q-35 0 -59.5 -10t-39.5 -36.5t-23.5 -72t-12.5 -116.5z" />
<glyph unicode="f" horiz-adv-x="655" d="M43 827v220h104v124q0 113 26 180.5t68 104.5t97 48.5t115 11.5q86 0 143 -14.5t96 -35.5l-69 -196q-20 10 -44 16t-57 6q-45 0 -65.5 -22.5t-20.5 -75.5v-147h176v-220h-176v-827h-289v827h-104z" />
<glyph unicode="g" horiz-adv-x="1058" d="M63 -129q0 72 39 119t97 76q-88 59 -88 176q0 76 32.5 127t83.5 82q-66 43 -96.5 112.5t-30.5 163.5q0 168 98.5 257t311.5 89q47 0 91 -7t81 -19h315v-148l-102 -41q31 -68 31 -151q0 -166 -95.5 -244t-314.5 -78q-61 0 -110 6q-12 -16 -21.5 -36.5t-9.5 -41.5 q0 -23 16.5 -37t50.5 -14h195q78 0 144.5 -16.5t115.5 -52t76.5 -92t27.5 -138.5q0 -182 -119.5 -273t-381.5 -91q-223 0 -330 71.5t-107 200.5zM317 -82q0 -29 6.5 -52.5t27 -39.5t58 -25.5t99.5 -9.5q100 0 152.5 36t52.5 95q0 63 -41 83t-142 20h-190q-10 -20 -16.5 -47 t-6.5 -60zM381 719q0 -72 26.5 -111t108.5 -39t110.5 36t28.5 112t-25.5 114.5t-113.5 38.5q-78 0 -106.5 -37.5t-28.5 -113.5z" />
<glyph unicode="h" horiz-adv-x="1067" d="M123 0v1499h289v-528q47 41 110.5 71.5t155.5 30.5q135 0 203.5 -64.5t68.5 -224.5v-784h-291v719q0 76 -25.5 99.5t-70.5 23.5q-47 0 -80.5 -16.5t-70.5 -45.5v-780h-289z" />
<glyph unicode="i" horiz-adv-x="598" d="M59 858v189h410v-1047h-291v829zM150 1339q0 74 50 125.5t122 51.5q74 0 125 -51.5t51 -123.5t-51 -123t-123 -51q-74 0 -124 50.5t-50 121.5z" />
<glyph unicode="j" horiz-adv-x="598" d="M43 -217q43 20 68.5 39.5t41 46.5t20.5 64.5t5 95.5v800l-119 29v189h410v-1002q0 -102 -16.5 -180t-56.5 -133.5t-105.5 -92t-161.5 -59.5zM150 1339q0 74 50 125.5t122 51.5q74 0 125 -51.5t51 -123.5t-51 -123t-123 -51q-74 0 -124 50.5t-50 121.5z" />
<glyph unicode="k" horiz-adv-x="1028" d="M123 0v1499h289v-1499h-289zM414 594l229 453h322l-260 -429l317 -618h-313z" />
<glyph unicode="l" horiz-adv-x="585" d="M123 307v1192h289v-1214q0 -59 14 -74.5t66 -15.5q4 0 14 2h10l29 -189q-25 -10 -70 -20.5t-98 -10.5q-82 0 -131 19.5t-77 60.5t-37 102.5t-9 147.5z" />
<glyph unicode="m" horiz-adv-x="1546" d="M123 0v1047h235l23 -97q59 55 125.5 89t157.5 34q166 0 225 -121q61 55 128.5 88t156.5 33q121 0 188.5 -62.5t67.5 -219.5v-791h-289v725q0 74 -22.5 95.5t-61.5 21.5q-35 0 -69 -16.5t-66 -43.5v-782h-291v725q0 74 -21.5 95.5t-62.5 21.5q-35 0 -68 -16.5t-67 -45.5 v-780h-289z" />
<glyph unicode="n" horiz-adv-x="1067" d="M123 0v1047h235l25 -101q59 55 128 91t167 36q135 0 203.5 -64.5t68.5 -224.5v-784h-291v719q0 76 -25.5 99.5t-70.5 23.5q-47 0 -80.5 -16.5t-70.5 -45.5v-780h-289z" />
<glyph unicode="o" horiz-adv-x="1062" d="M76 528q0 147 30.5 251t89 169.5t142.5 95t192 29.5q217 0 336 -128t119 -425q0 -147 -30.5 -250.5t-89 -170t-142.5 -96.5t-193 -30q-217 0 -335.5 130t-118.5 425zM387 520q0 -100 6 -164.5t23.5 -102.5t45 -52.5t70.5 -14.5t71 15.5t44.5 54.5t22.5 105.5t6 166.5 q0 104 -7 169t-23.5 101t-44.5 48t-71 12t-70.5 -13.5t-44 -51t-22.5 -103t-6 -170.5z" />
<glyph unicode="p" horiz-adv-x="1079" d="M123 -395v1442h235l25 -101q59 61 123.5 94t144.5 33q84 0 148.5 -24.5t108.5 -85t67.5 -162t23.5 -254.5q0 -166 -21.5 -275.5t-64.5 -176t-107.5 -94.5t-152.5 -28q-84 0 -143 31t-98 66v-465h-289zM412 260q23 -23 56.5 -39t80.5 -16q43 0 69.5 13t43 49t22.5 99.5 t6 163.5q0 96 -5 158t-20.5 95.5t-40 46t-65.5 12.5q-49 0 -84 -17.5t-63 -42.5v-522z" />
<glyph unicode="q" horiz-adv-x="1081" d="M80 512q0 164 21.5 272.5t64.5 173t105.5 90t144.5 25.5q88 0 158.5 -32.5t121.5 -92.5l25 99h235v-1442h-288v467q-39 -43 -96.5 -71t-131.5 -28q-82 0 -149.5 27t-113.5 89.5t-71.5 165.5t-25.5 257zM391 516q0 -96 5 -157.5t19.5 -95.5t40 -46t64.5 -12q51 0 85 16.5 t63 40.5v522q-23 23 -56.5 40.5t-79.5 17.5q-43 0 -70.5 -13.5t-43 -49.5t-21.5 -99.5t-6 -163.5z" />
<glyph unicode="r" horiz-adv-x="745" d="M123 0v1047h235l27 -119q47 66 111.5 101.5t140.5 35.5q23 0 45.5 -3t36.5 -7l-51 -289q-20 12 -47 20.5t-58 8.5q-53 0 -85 -12.5t-66 -37.5v-745h-289z" />
<glyph unicode="s" horiz-adv-x="876" d="M37 70l92 219q53 -35 115.5 -56.5t130.5 -21.5q141 0 141 92q0 55 -39 77.5t-139 51.5q-115 35 -182.5 105.5t-67.5 218.5q0 158 94 237.5t262 79.5q111 0 182.5 -17.5t139.5 -47.5l-72 -217q-53 27 -105 39t-114 12q-47 0 -75.5 -19.5t-28.5 -62.5q0 -25 6 -41.5 t23.5 -27.5t46 -20t71.5 -22q61 -16 113.5 -38.5t90.5 -59.5t60.5 -92.5t22.5 -139.5q0 -166 -91 -256t-292 -90q-127 0 -225.5 30t-159.5 67z" />
<glyph unicode="t" horiz-adv-x="694" d="M47 827v220h107v256l288 49v-305h193v-220h-193v-524q0 -68 19.5 -89t58.5 -21q33 0 54.5 9t35.5 13l39 -197q-35 -16 -81 -30.5t-119 -14.5q-68 0 -122.5 12.5t-92 43t-59 81t-21.5 126.5v591h-107z" />
<glyph unicode="u" d="M117 276v771h289v-715q0 -78 26.5 -101.5t73.5 -23.5t81 17.5t68 45.5v777h289v-1047h-235l-25 104q-29 -29 -55.5 -53t-58 -41.5t-70.5 -27t-92 -9.5q-129 0 -210 74t-81 229z" />
<glyph unicode="v" horiz-adv-x="1005" d="M25 1047h303l112 -388q6 -25 15.5 -60.5t18.5 -76.5t18.5 -84t17.5 -80h4q8 68 25.5 157t38.5 163l106 369h297l-346 -1047h-254z" />
<glyph unicode="w" horiz-adv-x="1441" d="M29 1047h290l80 -377q16 -86 27.5 -179.5t17.5 -156.5h2q4 59 16.5 140t35.5 171l92 402h266l98 -422q16 -72 28.5 -152t16.5 -135h5q4 61 14 154.5t26 185.5l76 369h293l-285 -1047h-264l-98 440q-16 72 -29.5 152t-19.5 131h-2q-6 -53 -16.5 -128t-30.5 -161l-103 -434 h-260z" />
<glyph unicode="x" horiz-adv-x="1028" d="M27 0l319 561l-280 486h335l60 -127q27 -55 42 -101.5t29 -89.5h3q8 29 22 82t37 107l55 129h326l-287 -480l313 -567h-335l-86 186q-25 53 -42.5 101.5t-27.5 81.5h-4q-10 -35 -24.5 -79t-43.5 -106l-86 -184h-325z" />
<glyph unicode="y" horiz-adv-x="1003" d="M25 1047h303l129 -537q16 -66 28.5 -128.5t18.5 -113.5h2q8 51 17 110.5t30 137.5l123 531h303l-317 -1059q-35 -115 -74 -186.5t-94.5 -116.5t-132 -68t-189.5 -35l-57 236q70 10 117 23.5t79.5 34t55 50t43.5 74.5h-70z" />
<glyph unicode="z" horiz-adv-x="872" d="M70 0v197l403 622h-364v228h690v-211l-391 -605h395v-231h-733z" />
<glyph unicode="{" horiz-adv-x="731" d="M63 473v240q90 0 122 24.5t32 98.5v358q0 86 21.5 145.5t59.5 94t90 50t114 15.5h153v-217h-69q-59 0 -76.5 -24.5t-17.5 -92.5v-383q0 -55 -8.5 -90t-27 -55.5t-45 -29.5t-63.5 -13v-4q37 -4 63.5 -13.5t45 -29t27 -53t8.5 -88.5v-390q0 -68 17 -93t77 -25h69v-217h-153 q-57 0 -109.5 15t-91.5 52t-61.5 95.5t-22.5 144.5v360q0 82 -33.5 103.5t-120.5 21.5z" />
<glyph unicode="|" horiz-adv-x="516" d="M172 -317v1888h172v-1888h-172z" />
<glyph unicode="}" horiz-adv-x="731" d="M76 -102h69q59 0 77 25.5t18 92.5v390q0 55 8 88.5t25.5 53t45 29t64.5 13.5v4q-37 4 -64.5 13t-45 29.5t-25.5 55.5t-8 90v383q0 68 -17.5 92.5t-77.5 24.5h-69v217h153q61 0 113.5 -15.5t90.5 -50t59.5 -94t21.5 -145.5v-358q0 -74 32 -98.5t122 -24.5v-240 q-86 0 -120 -21.5t-34 -103.5v-360q0 -86 -22.5 -144.5t-61.5 -95.5t-90 -52t-111 -15h-153v217z" />
<glyph unicode="~" horiz-adv-x="1112" d="M100 573q53 129 128 203t171 74q55 0 97.5 -13.5t77 -29.5t66.5 -29.5t65 -13.5q35 0 62.5 26.5t51.5 69.5l193 -104q-53 -129 -128 -202t-171 -73q-55 0 -97.5 13.5t-77 30t-65.5 29.5t-63 13q-37 0 -65 -26.5t-52 -71.5z" />
<glyph unicode="&#xa1;" horiz-adv-x="612" d="M125 899q0 72 50 123t122 51t122 -51t50 -123t-50 -123t-122 -51t-122 51t-50 123zM131 -375l57 1000h220l65 -1000h-342z" />
<glyph unicode="&#xa2;" horiz-adv-x="890" d="M76 528q0 248 81 375t240 158v248h236v-246q63 -12 115.5 -40t99.5 -71l-139 -186q-35 37 -74 57.5t-92 20.5q-41 0 -71 -11.5t-48 -45t-26.5 -95t-8.5 -160.5q0 -98 8.5 -161.5t26.5 -100.5t50 -51t77 -14q63 0 101 21.5t79 56.5l119 -191q-88 -84 -217 -108v-252h-236 v256q-164 35 -242.5 167t-78.5 373z" />
<glyph unicode="&#xa3;" horiz-adv-x="1073" d="M98 543v221h105q-16 41 -25.5 87t-9.5 103q0 186 112.5 285.5t317.5 99.5q143 0 237.5 -33.5t172.5 -88.5l-113 -213q-63 41 -119.5 59t-136.5 18q-154 0 -154 -151q0 -43 8.5 -84t20.5 -82h307v-221h-262v-21q0 -82 -29.5 -151.5t-109.5 -126.5h579v-244h-897v262 q94 47 131 117t37 135v13.5t-2 15.5h-170z" />
<glyph unicode="&#xa4;" horiz-adv-x="1220" d="M41 1010l201 202l141 -135q102 57 229 58q133 0 228 -58l22 21q23 22 49 47q31 31 70 67l197 -196l-156 -160q33 -86 33 -211q0 -119 -31 -209l156 -160l-203 -202l-143 137q-98 -51 -222 -51q-129 0 -225 55l-147 -141l-197 198l162 162q-35 98 -35 217q0 57 8 107.5 t23 93.5zM461 645q0 -141 34.5 -202.5t118.5 -61.5q82 0 116 64.5t34 205.5q0 143 -35 201.5t-117 58.5q-84 0 -117.5 -60t-33.5 -206z" />
<glyph unicode="&#xa5;" horiz-adv-x="1212" d="M66 1313h325l148 -330q29 -68 46 -125t31 -123q14 66 31 126.5t41 121.5l143 330h316l-260 -518h223v-193h-319l-35 -72v-57h354v-192h-354v-281h-299v281h-355v192h355v51l-39 78h-316v193h220z" />
<glyph unicode="&#xa6;" horiz-adv-x="516" d="M172 -317v815h172v-815h-172zM172 770v801h172v-801h-172z" />
<glyph unicode="&#xa7;" horiz-adv-x="1093" d="M90 487q0 190 166 267q-39 41 -60.5 98t-21.5 137q0 174 101.5 262t287.5 88q121 0 199 -21.5t149 -55.5l-84 -222q-59 31 -112 45.5t-123 14.5q-68 0 -97.5 -25.5t-29.5 -73.5q0 -57 39 -78.5t135 -48.5q84 -25 151.5 -50t114.5 -63t73 -95.5t26 -143.5 q0 -193 -168 -268q45 -41 70.5 -98.5t25.5 -141.5q0 -180 -98.5 -276t-313.5 -96q-137 0 -234.5 32.5t-156.5 75.5l100 217q55 -41 112.5 -64.5t137.5 -23.5q86 0 122 27.5t36 87.5q0 31 -12.5 50t-39 34.5t-67.5 28t-98 30.5q-84 25 -146.5 54.5t-103.5 69.5t-60.5 94.5 t-19.5 131.5zM352 528q0 -33 15.5 -54t49.5 -37.5t85 -34t125 -42.5q2 -2 4 -2q55 14 78.5 43t23.5 72q0 35 -13 56.5t-45 38t-84 32.5t-132 41q-59 -12 -83 -42t-24 -71z" />
<glyph unicode="&#xa8;" d="M166 1313q0 66 45 111.5t106 45.5q66 0 112 -46t46 -111q0 -66 -46 -110t-107 -44t-108.5 44t-47.5 110zM592 1313q0 66 44 111.5t107 45.5q66 0 112 -46t46 -111q0 -66 -46 -110t-107 -44q-66 0 -111 44t-45 110z" />
<glyph unicode="&#xa9;" horiz-adv-x="1503" d="M100 727q0 174 42 314.5t125 239.5t205 153.5t280 54.5t278.5 -54.5t203.5 -153.5t126 -239.5t43 -314.5t-43 -314.5t-126 -239.5t-203.5 -153.5t-278.5 -54.5t-280 54.5t-205 153.5t-125 239.5t-42 314.5zM242 727q0 -143 29.5 -262t92 -202t159 -129t229.5 -46t229 46 t158.5 129t92.5 202t30 262q0 145 -30 263t-92.5 202t-158.5 129t-229 45t-229.5 -45t-159 -129t-92 -202t-29.5 -263zM406 715q0 137 25.5 227t73.5 144.5t115.5 76t149.5 21.5q80 0 155.5 -29t125.5 -94l-129 -158q-25 29 -53.5 47.5t-82.5 18.5q-33 0 -56 -9.5t-36.5 -35 t-19.5 -72.5t-6 -121q0 -88 7 -140t22.5 -80t40 -37t61.5 -9q41 0 69.5 19.5t53.5 47.5l137 -145q-49 -61 -115 -98t-166 -37q-190 0 -281 108.5t-91 354.5z" />
<glyph unicode="&#xaa;" horiz-adv-x="960" d="M98 651q0 164 99.5 235.5t310.5 71.5h57v35q0 70 -18.5 101.5t-83.5 31.5q-70 0 -132.5 -25.5t-115.5 -56.5l-96 185q78 51 167 80.5t201 29.5q176 0 260 -69.5t84 -237.5v-659h-208q-2 0 -9.5 21.5t-17.5 49.5q-35 -41 -86 -68.5t-127 -27.5q-150 0 -217.5 81t-67.5 222 zM367 653q0 -68 17.5 -96.5t66.5 -28.5q39 0 65.5 14.5t48.5 32.5v224h-12q-61 0 -98 -8.5t-56.5 -25.5t-25.5 -45t-6 -67z" />
<glyph unicode="&#xab;" horiz-adv-x="1148" d="M70 518l317 492l197 -140l-224 -352l224 -354l-197 -135zM543 518l317 492l197 -140l-226 -352l224 -354l-195 -135z" />
<glyph unicode="&#xac;" horiz-adv-x="1091" d="M123 543v272h823v-559h-284v287h-539z" />
<glyph unicode="&#xad;" horiz-adv-x="659" d="M94 420v291h469v-291h-469z" />
<glyph unicode="&#xae;" horiz-adv-x="1105" d="M82 926q0 123 35 223t96 171t148.5 108.5t191.5 37.5t191 -37.5t148.5 -108.5t96.5 -171t35 -223t-35 -223.5t-96.5 -171t-148.5 -108.5t-191 -38t-191.5 38t-148.5 108.5t-96 171t-35 223.5zM207 926q0 -211 87 -321.5t259 -110.5q170 0 257 110.5t87 321.5 q0 209 -87 320.5t-257 111.5q-172 0 -259 -111.5t-87 -320.5zM352 635v592h199q119 0 169 -45t50 -125q0 -78 -27.5 -110t-72.5 -42q35 -14 51 -40.5t29 -71.5l38 -158h-161l-37 170q-10 37 -24.5 50t-47.5 13h-12v-233h-154zM506 979h51q29 0 40 15.5t11 47.5q0 57 -51 58 h-51v-121z" />
<glyph unicode="&#xaf;" d="M252 1229v225h565v-225h-565z" />
<glyph unicode="&#xb0;" horiz-adv-x="843" d="M88 1092q0 172 93 263t243 91q152 0 242 -89t90 -265q0 -174 -92 -270.5t-246 -96.5t-242 96.5t-88 270.5zM305 1092q0 -106 28 -152.5t89 -46.5t89 47t28 147q0 104 -29 147.5t-88 43.5t-88 -42t-29 -144z" />
<glyph unicode="&#xb1;" horiz-adv-x="1189" d="M123 18v269h944v-269h-944zM123 670v268h330v279h284v-279h330v-268h-330v-275h-284v275h-330z" />
<glyph unicode="&#xb2;" horiz-adv-x="772" d="M59 1264q53 29 125 52t176 23q154 0 239 -75.5t85 -216.5q0 -66 -21.5 -120.5t-64.5 -104.5t-107.5 -99t-148.5 -105h358v-192h-628v205q96 72 163.5 126t109.5 99t61.5 84t19.5 80q0 66 -32 88t-79 22q-53 0 -99 -13t-91 -36z" />
<glyph unicode="&#xb3;" horiz-adv-x="765" d="M45 387l45 180q49 -14 104.5 -23t102.5 -9q84 0 114.5 29.5t30.5 92.5q0 61 -31.5 86t-105.5 25h-98v188h96q66 0 96.5 21.5t30.5 73.5q0 47 -27.5 69.5t-97.5 22.5q-51 0 -97 -12.5t-93 -30.5l-52 176q63 29 133 46t166 17q141 0 227.5 -63.5t86.5 -188.5 q0 -78 -38 -137t-114 -84q92 -23 136.5 -85t44.5 -144q0 -137 -83.5 -221t-271.5 -84q-102 0 -177 16.5t-128 38.5z" />
<glyph unicode="&#xb4;" d="M301 1300l399 295l138 -237l-443 -215z" />
<glyph unicode="&#xb5;" d="M117 -395v1442h289v-715q0 -78 26.5 -101.5t73.5 -23.5t81 17.5t68 45.5v777h289v-1047h-235l-25 104q-47 -57 -101 -90.5t-120 -33.5q-33 0 -57 8v-383h-289z" />
<glyph unicode="&#xb6;" horiz-adv-x="1212" d="M90 1063q0 92 32 159.5t89 112.5t137 66.5t176 21.5h543v-1601h-207v1427h-147v-1427h-207v880h-8q-207 0 -307.5 96.5t-100.5 264.5z" />
<glyph unicode="&#xb7;" horiz-adv-x="583" d="M106 659q0 76 54.5 129.5t130.5 53.5t130 -53.5t54 -129.5q0 -78 -54 -132t-130 -54t-130.5 54.5t-54.5 131.5z" />
<glyph unicode="&#xb8;" d="M330 -414l45 125q23 -12 48.5 -20t57.5 -8q78 0 78 59q0 35 -18.5 47t-65.5 12q-23 0 -41 -3t-28 -7l55 209h157l-28 -92q74 -10 108.5 -56.5t34.5 -111.5q0 -41 -11 -76t-38 -61.5t-71.5 -42t-112.5 -15.5q-49 0 -95.5 12.5t-74.5 28.5z" />
<glyph unicode="&#xb9;" horiz-adv-x="731" d="M66 1094l272 229h168v-715h149v-182h-553v182h164v408l-139 -60z" />
<glyph unicode="&#xba;" horiz-adv-x="1028" d="M100 848q0 260 111 375.5t303 115.5q188 0 301 -118.5t113 -380.5q0 -260 -113 -376t-301 -116q-190 0 -302 120t-112 380zM385 840q0 -90 6 -147.5t21.5 -90.5t40 -45t61.5 -12t60.5 13t39 48t21.5 93.5t6 148.5q0 92 -6 149.5t-21.5 89t-40 42t-61.5 10.5t-60.5 -11.5 t-39 -44t-21.5 -91t-6 -152.5z" />
<glyph unicode="&#xbb;" horiz-adv-x="1148" d="M92 166l225 352l-223 354l195 138l317 -492l-317 -489zM565 166l223 352l-223 354l197 138l317 -492l-317 -489z" />
<glyph unicode="&#xbc;" horiz-adv-x="2162" d="M66 1094l272 229h168v-715h149v-182h-553v182h164v408l-139 -60zM526 0l813 1313h252l-813 -1313h-252zM1284 113v200l236 578h241l-239 -590h207v301l235 35v-336h94v-188h-94v-193h-235v193h-445z" />
<glyph unicode="&#xbd;" horiz-adv-x="2140" d="M66 1094l272 229h168v-715h149v-182h-553v182h164v408l-139 -60zM504 0l811 1313h252l-811 -1313h-252zM1389 838q51 29 123.5 52t177.5 23q154 0 238.5 -75.5t84.5 -216.5q0 -66 -22.5 -120.5t-65.5 -104.5t-106.5 -99t-147.5 -104h359v-193h-629v205q96 72 163.5 126 t109.5 99t60.5 84t18.5 80q0 66 -30.5 88.5t-80.5 22.5q-53 0 -98 -13.5t-90 -36.5z" />
<glyph unicode="&#xbe;" horiz-adv-x="2174" d="M45 387l45 180q49 -14 104.5 -23t102.5 -9q84 0 114.5 29.5t30.5 92.5q0 61 -31.5 86t-105.5 25h-98v188h96q66 0 96.5 21.5t30.5 73.5q0 47 -27.5 69.5t-97.5 22.5q-51 0 -97 -12.5t-93 -30.5l-52 176q63 29 133 46t166 17q141 0 227.5 -63.5t86.5 -188.5 q0 -78 -38 -137t-114 -84q92 -23 136.5 -85t44.5 -144q0 -137 -83.5 -221t-271.5 -84q-102 0 -177 16.5t-128 38.5zM551 0l811 1313h252l-811 -1313h-252zM1321 113v200l233 578h242l-240 -590h209v301l234 35v-336h96v-188h-96v-193h-234v193h-444z" />
<glyph unicode="&#xbf;" horiz-adv-x="921" d="M86 -43q0 139 58.5 219t160.5 141q57 35 76.5 74t19.5 111v123h246v-168q0 -125 -32.5 -188.5t-104.5 -110.5t-97.5 -83t-25.5 -100q0 -66 33 -95.5t104 -29.5q72 0 126.5 26t82.5 50l121 -205q-74 -53 -160 -86.5t-209 -33.5q-84 0 -156.5 18.5t-127 61.5t-85 110.5 t-30.5 165.5zM348 899q0 72 50.5 123t121.5 51q72 0 122 -51t50 -123t-50 -123t-122 -51t-122 51t-50 123z" />
<glyph unicode="&#xc0;" horiz-adv-x="1173" d="M33 0l405 1423h318l385 -1423h-326l-65 289h-334l-70 -289h-313zM283 1716l137 238l397 -295l-92 -158zM473 520h223l-55 240q-23 96 -34 170t-17 127h-2q-8 -53 -19.5 -127t-36.5 -170z" />
<glyph unicode="&#xc1;" horiz-adv-x="1173" d="M33 0l405 1423h318l385 -1423h-326l-65 289h-334l-70 -289h-313zM352 1659l400 295l137 -238l-443 -215zM473 520h223l-55 240q-23 96 -34 170t-17 127h-2q-8 -53 -19.5 -127t-36.5 -170z" />
<glyph unicode="&#xc2;" horiz-adv-x="1173" d="M33 0l405 1423h318l385 -1423h-326l-65 289h-334l-70 -289h-313zM250 1632l254 266h166l250 -266l-89 -127l-249 148l-242 -148zM473 520h223l-55 240q-23 96 -34 170t-17 127h-2q-8 -53 -19.5 -127t-36.5 -170z" />
<glyph unicode="&#xc3;" horiz-adv-x="1173" d="M33 0l405 1423h318l385 -1423h-326l-65 289h-334l-70 -289h-313zM221 1626q45 106 104.5 161.5t137.5 55.5q47 0 79.5 -11t59.5 -25.5t50.5 -26t52.5 -11.5q31 0 52 21.5t44 56.5l151 -100q-45 -106 -104.5 -161.5t-136.5 -55.5q-45 0 -79 11t-60.5 25.5t-50 26 t-52.5 11.5q-31 0 -52.5 -21.5t-43.5 -56.5zM473 520h223l-55 240q-23 96 -34 170t-17 127h-2q-8 -53 -19.5 -127t-36.5 -170z" />
<glyph unicode="&#xc4;" horiz-adv-x="1173" d="M33 0l405 1423h318l385 -1423h-326l-65 289h-334l-70 -289h-313zM217 1671q0 66 45 112t107 46q66 0 111.5 -46t45.5 -112t-46 -109.5t-107 -43.5t-108.5 44t-47.5 109zM473 520h223l-55 240q-23 96 -34 170t-17 127h-2q-8 -53 -19.5 -127t-36.5 -170zM643 1671 q0 66 44 112t108 46q66 0 111.5 -46t45.5 -112t-46 -109.5t-107 -43.5q-66 0 -111 44t-45 109z" />
<glyph unicode="&#xc5;" horiz-adv-x="1173" d="M33 0l405 1423h318l385 -1423h-326l-65 289h-334l-70 -289h-313zM360 1731q0 100 61.5 166.5t166.5 66.5q104 0 164.5 -66.5t60.5 -166.5t-60.5 -167t-164.5 -67t-166 66.5t-62 167.5zM473 520h223l-55 240q-23 96 -34 170t-17 127h-2q-8 -53 -19.5 -127t-36.5 -170z M512 1731q0 -53 17.5 -82t58.5 -29q76 0 76 111t-76 110q-41 0 -58.5 -27.5t-17.5 -82.5z" />
<glyph unicode="&#xc6;" horiz-adv-x="1681" d="M14 0l686 1423h875v-260h-455v-297h361v-252h-361v-352h490v-262h-797v264h-364l-119 -264h-316zM555 496h258v278q0 47 2 107.5t4 120t5 107.5t3 69h-4q-8 -29 -20 -72t-27.5 -92t-35 -102.5t-44.5 -104.5z" />
<glyph unicode="&#xc7;" horiz-adv-x="1105" d="M98 709q0 207 37 348t109.5 229t178 126t241.5 38q123 0 215 -30.5t151 -80.5l-121 -233q-47 41 -104 62.5t-125 21.5q-74 0 -122 -19.5t-74.5 -71.5t-37 -142.5t-10.5 -229.5q0 -150 14.5 -245t44 -150.5t75.5 -77t112 -21.5q78 0 135 27t103 74l133 -223 q-66 -59 -154 -98.5t-229 -39.5h-11l-20 -65q74 -10 108.5 -56.5t34.5 -111.5q0 -41 -11 -76t-37.5 -61.5t-71.5 -42t-113 -15.5q-49 0 -95 12.5t-75 28.5l45 125q23 -12 48.5 -20t57.5 -8q78 0 78 59q0 35 -18.5 47t-65.5 12q-23 0 -41 -3t-28 -7l51 199 q-211 43 -309.5 216t-98.5 503z" />
<glyph unicode="&#xc8;" horiz-adv-x="1013" d="M145 0v1423h762v-260h-454v-297h362v-252h-362v-352h489v-262h-797zM238 1716l137 238l397 -295l-92 -158z" />
<glyph unicode="&#xc9;" horiz-adv-x="1013" d="M145 0v1423h762v-260h-454v-297h362v-252h-362v-352h489v-262h-797zM301 1659l399 295l138 -238l-443 -215z" />
<glyph unicode="&#xca;" horiz-adv-x="1013" d="M145 0v1423h762v-260h-454v-297h362v-252h-362v-352h489v-262h-797zM190 1632l254 266h166l250 -266l-88 -127l-250 148l-241 -148z" />
<glyph unicode="&#xcb;" horiz-adv-x="1013" d="M145 0v1423h762v-260h-454v-297h362v-252h-362v-352h489v-262h-797zM158 1671q0 66 45 112t106 46q66 0 112 -46t46 -112t-46.5 -109.5t-107.5 -43.5t-108 44t-47 109zM584 1671q0 66 44 112t107 46q66 0 112 -46t46 -112t-46.5 -109.5t-107.5 -43.5q-66 0 -110.5 44 t-44.5 109z" />
<glyph unicode="&#xcc;" horiz-adv-x="784" d="M98 0v168l138 31v1024l-138 30v170h588v-170l-137 -30v-1024l137 -31v-168h-588zM98 1716l138 238l397 -295l-92 -158z" />
<glyph unicode="&#xcd;" horiz-adv-x="784" d="M98 0v168l138 31v1024l-138 30v170h588v-170l-137 -30v-1024l137 -31v-168h-588zM152 1659l399 295l137 -238l-442 -215z" />
<glyph unicode="&#xce;" horiz-adv-x="784" d="M57 1632l254 266h166l250 -266l-88 -127l-250 148l-242 -148zM98 0v168l138 31v1024l-138 30v170h588v-170l-137 -30v-1024l137 -31v-168h-588z" />
<glyph unicode="&#xcf;" horiz-adv-x="784" d="M25 1671q0 66 45 112t106 46q66 0 112 -46t46 -112t-46.5 -109.5t-107.5 -43.5t-108 44t-47 109zM98 0v168l138 31v1024l-138 30v170h588v-170l-137 -30v-1024l137 -31v-168h-588zM451 1671q0 66 44 112t107 46q66 0 112 -46t46 -112t-46.5 -109.5t-107.5 -43.5 q-66 0 -110.5 44t-44.5 109z" />
<glyph unicode="&#xd0;" horiz-adv-x="1259" d="M37 580v243h113v600h458q135 0 238.5 -35.5t173.5 -117.5t105.5 -215t35.5 -328q0 -176 -27.5 -311t-91 -227.5t-167 -140.5t-257.5 -48h-468v580h-113zM457 262h145q61 0 104.5 18.5t70 69.5t38.5 144.5t12 242.5q0 133 -12 216t-39.5 130t-72 64.5t-107.5 17.5h-139 v-342h194v-243h-194v-318z" />
<glyph unicode="&#xd1;" horiz-adv-x="1251" d="M145 0v1423h291l295 -630q37 -78 68.5 -168t54.5 -162h2q-4 33 -9 78t-9 96t-7.5 103.5t-3.5 101.5v581h277v-1423h-307l-275 612q-45 98 -76.5 183.5t-54.5 156.5h-2q4 -27 9 -69.5t11.5 -98t10.5 -119t4 -128.5v-537h-279zM260 1626q45 106 104.5 161.5t137.5 55.5 q47 0 79.5 -11t59.5 -25.5t50.5 -26t51.5 -11.5q31 0 52.5 21.5t44.5 56.5l151 -100q-45 -106 -104.5 -161.5t-136.5 -55.5q-45 0 -79 11t-60.5 25.5t-50 26t-52.5 11.5q-31 0 -52.5 -21.5t-43.5 -56.5z" />
<glyph unicode="&#xd2;" horiz-adv-x="1323" d="M106 709q0 389 143.5 565t422.5 176q281 0 421 -175t140 -562q0 -391 -139 -565.5t-422 -174.5q-281 0 -423.5 173t-142.5 563zM367 1716l137 238l397 -295l-92 -158zM438 715q0 -139 11.5 -234.5t38 -153t71.5 -82t111 -24.5t110.5 24.5t71.5 82t38 152.5t11 235 q0 139 -11 231t-38 149.5t-72 81t-110 23.5q-66 0 -111 -23.5t-71.5 -81t-38 -149.5t-11.5 -231z" />
<glyph unicode="&#xd3;" horiz-adv-x="1323" d="M98 709q0 389 143.5 565t422.5 176q281 0 421 -175t140 -562q0 -391 -139 -565.5t-422 -174.5q-281 0 -423.5 173t-142.5 563zM428 1659l399 295l138 -238l-443 -215zM430 715q0 -139 11.5 -234.5t38 -153t71.5 -82t111 -24.5t110.5 24.5t71 82t38 152.5t11.5 235 q0 139 -11.5 231t-38 149.5t-71.5 81t-110 23.5q-66 0 -111 -23.5t-71.5 -81t-38 -149.5t-11.5 -231z" />
<glyph unicode="&#xd4;" horiz-adv-x="1323" d="M98 709q0 389 143.5 565t422.5 176q281 0 421 -175t140 -562q0 -391 -139 -565.5t-422 -174.5q-281 0 -423.5 173t-142.5 563zM326 1632l254 266h165l250 -266l-88 -127l-250 148l-241 -148zM430 715q0 -139 11.5 -234.5t38 -153t71.5 -82t111 -24.5t110.5 24.5t71 82 t38 152.5t11.5 235q0 139 -11.5 231t-38 149.5t-71.5 81t-110 23.5q-66 0 -111 -23.5t-71.5 -81t-38 -149.5t-11.5 -231z" />
<glyph unicode="&#xd5;" horiz-adv-x="1323" d="M98 709q0 389 143.5 565t422.5 176q281 0 421 -175t140 -562q0 -391 -139 -565.5t-422 -174.5q-281 0 -423.5 173t-142.5 563zM297 1626q45 106 104.5 161.5t137.5 55.5q47 0 79.5 -11t59.5 -25.5t50.5 -26t51.5 -11.5q31 0 52.5 21.5t44.5 56.5l151 -100 q-45 -106 -104.5 -161.5t-137.5 -55.5q-45 0 -78.5 11t-60 25.5t-50.5 26t-52 11.5q-31 0 -52.5 -21.5t-43.5 -56.5zM430 715q0 -139 11.5 -234.5t38 -153t71.5 -82t111 -24.5t110.5 24.5t71 82t38 152.5t11.5 235q0 139 -11.5 231t-38 149.5t-71.5 81t-110 23.5 q-66 0 -111 -23.5t-71.5 -81t-38 -149.5t-11.5 -231z" />
<glyph unicode="&#xd6;" horiz-adv-x="1323" d="M98 709q0 389 143.5 565t422.5 176q281 0 421 -175t140 -562q0 -391 -139 -565.5t-422 -174.5q-281 0 -423.5 173t-142.5 563zM293 1671q0 66 45 112t106 46q66 0 112 -46t46 -112t-46 -109.5t-107 -43.5t-108.5 44t-47.5 109zM430 715q0 -139 11.5 -234.5t38 -153 t71.5 -82t111 -24.5t110.5 24.5t71 82t38 152.5t11.5 235q0 139 -11.5 231t-38 149.5t-71.5 81t-110 23.5q-66 0 -111 -23.5t-71.5 -81t-38 -149.5t-11.5 -231zM719 1671q0 66 44 112t107 46q66 0 112 -46t46 -112t-46.5 -109.5t-107.5 -43.5q-66 0 -110.5 44t-44.5 109z " />
<glyph unicode="&#xd7;" horiz-adv-x="1177" d="M133 340l279 287l-279 286l182 193l277 -287l272 285l178 -186l-274 -287l274 -289l-182 -192l-274 290l-273 -290z" />
<glyph unicode="&#xd8;" horiz-adv-x="1323" d="M90 -92l143 246q-135 178 -135 555q0 389 143.5 565t422.5 176q174 0 290 -66l113 195l170 -98l-135 -232q123 -178 123 -536q0 -391 -139.5 -565.5t-421.5 -174.5q-160 0 -277 56l-127 -219zM424 715q0 -66 2 -119t8 -100l379 651q-51 57 -151 57q-66 0 -112 -24.5 t-73.5 -82t-40 -150.5t-12.5 -232zM524 262q50 -43 138 -43q66 0 111.5 24.5t73 83t40 153.5t12.5 235q0 51 -2 94t-6 82z" />
<glyph unicode="&#xd9;" horiz-adv-x="1249" d="M133 469v954h307v-991q0 -100 29 -148t129 -48q68 0 117 19t80 46v1122h307v-1423h-219l-39 98q-49 -53 -120.5 -89t-184.5 -36q-94 0 -169 27t-127.5 86t-81 153.5t-28.5 229.5zM330 1716l137 238l397 -295l-92 -158z" />
<glyph unicode="&#xda;" horiz-adv-x="1249" d="M133 469v954h307v-991q0 -100 29 -148t129 -48q68 0 117 19t80 46v1122h307v-1423h-219l-39 98q-49 -53 -120.5 -89t-184.5 -36q-94 0 -169 27t-127.5 86t-81 153.5t-28.5 229.5zM412 1659l399 295l137 -238l-442 -215z" />
<glyph unicode="&#xdb;" horiz-adv-x="1249" d="M133 469v954h307v-991q0 -100 29 -148t129 -48q68 0 117 19t80 46v1122h307v-1423h-219l-39 98q-49 -53 -120.5 -89t-184.5 -36q-94 0 -169 27t-127.5 86t-81 153.5t-28.5 229.5zM299 1632l254 266h166l250 -266l-88 -127l-250 148l-242 -148z" />
<glyph unicode="&#xdc;" horiz-adv-x="1249" d="M133 469v954h307v-991q0 -100 29 -148t129 -48q68 0 117 19t80 46v1122h307v-1423h-219l-39 98q-49 -53 -120.5 -89t-184.5 -36q-94 0 -169 27t-127.5 86t-81 153.5t-28.5 229.5zM262 1671q0 66 45 112t107 46q66 0 111.5 -46t45.5 -112t-46 -109.5t-107 -43.5t-108.5 44 t-47.5 109zM688 1671q0 66 44 112t108 46q66 0 111.5 -46t45.5 -112t-46 -109.5t-107 -43.5q-66 0 -111 44t-45 109z" />
<glyph unicode="&#xdd;" horiz-adv-x="1134" d="M29 1423h338l129 -315q29 -72 46 -129t29 -123q16 66 31.5 124t42.5 122l133 321h326l-389 -813v-610h-307v604zM369 1659l399 295l137 -238l-442 -215z" />
<glyph unicode="&#xde;" horiz-adv-x="1153" d="M145 0v1423h308v-225h110q125 0 221.5 -21.5t163 -72.5t100 -135t33.5 -209q0 -106 -21.5 -191.5t-76.5 -146t-151.5 -93t-243.5 -32.5h-135v-297h-308zM453 545h131q92 0 137 39t45 153q0 123 -43 163t-127 40h-143v-395z" />
<glyph unicode="&#xdf;" horiz-adv-x="1140" d="M123 0v1049q0 111 31.5 190.5t90 130.5t140.5 75.5t180 24.5q186 0 289.5 -86t103.5 -239q0 -76 -27.5 -125t-61 -81t-61.5 -55.5t-28 -52.5t27 -50t92 -74q29 -25 59.5 -57t56 -73.5t42 -95t16.5 -121.5q0 -199 -102.5 -291t-288.5 -92q-68 0 -118 11.5t-79 23.5l35 215 q18 -6 43 -12t60 -6q72 0 106.5 33.5t34.5 109.5q0 41 -10.5 71t-28.5 53.5t-42 46t-50 46.5q-47 45 -81 92.5t-34 137.5q0 70 25.5 109.5t55.5 70.5t55.5 62.5t25.5 80.5q0 63 -29.5 88t-93.5 25q-74 0 -108.5 -46t-34.5 -157v-1032h-291z" />
<glyph unicode="&#xe0;" horiz-adv-x="991" d="M68 309q0 184 109.5 263t344.5 79h64v39q0 78 -21.5 114t-95.5 36q-76 0 -144.5 -28t-127.5 -62l-105 196q86 59 183.5 93t222.5 34q199 0 287.5 -75.5t88.5 -262.5v-735h-227q-2 0 -10 25.5t-19 56.5q-41 -45 -98 -77t-143 -32q-166 0 -237.5 90.5t-71.5 245.5z M207 1358l137 237l397 -295l-92 -157zM354 313q0 -78 23 -109.5t80 -31.5q43 0 73.5 16.5t55.5 38.5v246h-15q-70 0 -112.5 -9t-65 -28.5t-31 -49.5t-8.5 -73z" />
<glyph unicode="&#xe1;" horiz-adv-x="991" d="M68 309q0 184 109.5 263t344.5 79h64v39q0 78 -21.5 114t-95.5 36q-76 0 -144.5 -28t-127.5 -62l-105 196q86 59 183.5 93t222.5 34q199 0 287.5 -75.5t88.5 -262.5v-735h-227q-2 0 -10 25.5t-19 56.5q-41 -45 -98 -77t-143 -32q-166 0 -237.5 90.5t-71.5 245.5z M240 1300l399 295l137 -237l-442 -215zM354 313q0 -78 23 -109.5t80 -31.5q43 0 73.5 16.5t55.5 38.5v246h-15q-70 0 -112.5 -9t-65 -28.5t-31 -49.5t-8.5 -73z" />
<glyph unicode="&#xe2;" horiz-adv-x="991" d="M68 309q0 184 109.5 263t344.5 79h64v39q0 78 -21.5 114t-95.5 36q-76 0 -144.5 -28t-127.5 -62l-105 196q86 59 183.5 93t222.5 34q199 0 287.5 -75.5t88.5 -262.5v-735h-227q-2 0 -10 25.5t-19 56.5q-41 -45 -98 -77t-143 -32q-166 0 -237.5 90.5t-71.5 245.5z M156 1274l254 266h165l250 -266l-88 -127l-250 147l-241 -147zM354 313q0 -78 23 -109.5t80 -31.5q43 0 73.5 16.5t55.5 38.5v246h-15q-70 0 -112.5 -9t-65 -28.5t-31 -49.5t-8.5 -73z" />
<glyph unicode="&#xe3;" horiz-adv-x="991" d="M68 309q0 184 109.5 263t344.5 79h64v39q0 78 -21.5 114t-95.5 36q-76 0 -144.5 -28t-127.5 -62l-105 196q86 59 183.5 93t222.5 34q199 0 287.5 -75.5t88.5 -262.5v-735h-227q-2 0 -10 25.5t-19 56.5q-41 -45 -98 -77t-143 -32q-166 0 -237.5 90.5t-71.5 245.5z M123 1268q45 106 104.5 161.5t137.5 55.5q47 0 79.5 -11.5t59 -25.5t50.5 -25.5t52 -11.5q31 0 52.5 21.5t43.5 56.5l152 -100q-45 -106 -104.5 -162t-137.5 -56q-45 0 -78.5 11.5t-60.5 26t-50.5 25.5t-51.5 11q-31 0 -52.5 -21.5t-44.5 -56.5zM354 313q0 -78 23 -109.5 t80 -31.5q43 0 73.5 16.5t55.5 38.5v246h-15q-70 0 -112.5 -9t-65 -28.5t-31 -49.5t-8.5 -73z" />
<glyph unicode="&#xe4;" horiz-adv-x="991" d="M68 309q0 184 109.5 263t344.5 79h64v39q0 78 -21.5 114t-95.5 36q-76 0 -144.5 -28t-127.5 -62l-105 196q86 59 183.5 93t222.5 34q199 0 287.5 -75.5t88.5 -262.5v-735h-227q-2 0 -10 25.5t-19 56.5q-41 -45 -98 -77t-143 -32q-166 0 -237.5 90.5t-71.5 245.5z M131 1313q0 66 45 111.5t107 45.5q66 0 111.5 -46t45.5 -111q0 -66 -46 -110t-107 -44t-108.5 44t-47.5 110zM354 313q0 -78 23 -109.5t80 -31.5q43 0 73.5 16.5t55.5 38.5v246h-15q-70 0 -112.5 -9t-65 -28.5t-31 -49.5t-8.5 -73zM557 1313q0 66 44 111.5t108 45.5 q66 0 111.5 -46t45.5 -111q0 -66 -46 -110t-107 -44q-66 0 -111 44t-45 110z" />
<glyph unicode="&#xe5;" horiz-adv-x="991" d="M68 309q0 184 109.5 263t344.5 79h64v39q0 78 -21.5 114t-95.5 36q-76 0 -144.5 -28t-127.5 -62l-105 196q86 59 183.5 93t222.5 34q199 0 287.5 -75.5t88.5 -262.5v-735h-227q-2 0 -10 25.5t-19 56.5q-41 -45 -98 -77t-143 -32q-166 0 -237.5 90.5t-71.5 245.5z M272 1380q0 100 61.5 167t166.5 67q104 0 164.5 -66.5t60.5 -167.5q0 -100 -60.5 -166.5t-164.5 -66.5t-166 66.5t-62 166.5zM354 313q0 -78 23 -109.5t80 -31.5q43 0 73.5 16.5t55.5 38.5v246h-15q-70 0 -112.5 -9t-65 -28.5t-31 -49.5t-8.5 -73zM424 1380 q0 -53 17.5 -81.5t58.5 -28.5q76 0 75 110q0 111 -75 111q-41 0 -58.5 -27.5t-17.5 -83.5z" />
<glyph unicode="&#xe6;" horiz-adv-x="1519" d="M68 305q0 180 109.5 258t344.5 78h64v49q0 78 -21.5 114t-95.5 36q-76 0 -144.5 -28t-127.5 -62l-105 196q86 59 183.5 93t222.5 34q92 0 154.5 -22.5t99.5 -65.5q47 41 111.5 64.5t144.5 23.5q238 0 337 -134t99 -423v-72h-565q4 -76 16 -124t34.5 -74.5t57.5 -36.5 t84 -10q76 0 130 25.5t102 62.5l122 -189q-59 -53 -148 -89t-202 -36q-141 0 -228 41t-138 117q-53 -61 -133 -109.5t-191 -48.5q-170 0 -243.5 90.5t-73.5 241.5zM354 307q0 -76 24 -103.5t79 -27.5q39 0 68.5 13.5t60.5 41.5v230h-15q-70 0 -112.5 -8.5t-65 -26.5t-31 -48 t-8.5 -71zM881 641h270q-2 121 -25.5 172t-109.5 51q-33 0 -57.5 -10t-40 -34.5t-24.5 -67.5t-13 -111z" />
<glyph unicode="&#xe7;" horiz-adv-x="884" d="M76 528q0 291 110.5 418t325.5 127q104 0 182 -29.5t144 -91.5l-142 -188q-35 37 -70.5 57.5t-88.5 20.5q-39 0 -68 -11.5t-46 -44t-25.5 -94t-8.5 -160.5q0 -98 7 -161.5t25.5 -99t48.5 -50t75 -14.5q61 0 97 21.5t77 56.5l121 -193q-57 -53 -132 -85t-178 -34l-20 -65 q74 -10 108.5 -56.5t34.5 -111.5q0 -41 -11 -76t-37.5 -61.5t-71.5 -42t-113 -15.5q-49 0 -95 12.5t-75 28.5l45 125q23 -12 48.5 -20t57.5 -8q78 0 78 59q0 35 -18.5 47t-65.5 12q-23 0 -41 -3t-28 -7l51 199q-154 39 -227.5 171t-73.5 367z" />
<glyph unicode="&#xe8;" horiz-adv-x="1028" d="M76 528q0 147 29.5 252t86 169.5t138.5 94t184 29.5q238 0 338 -134t100 -423v-84h-563q4 -72 16.5 -117t35 -70.5t56 -34.5t81.5 -9q76 0 129 26.5t100 63.5l125 -193q-57 -53 -146 -89t-202 -36q-262 0 -385 130t-123 425zM242 1358l137 237l397 -295l-92 -157z M389 629h270q-4 127 -27.5 181t-107.5 54q-35 0 -59.5 -10t-39.5 -36.5t-23.5 -72t-12.5 -116.5z" />
<glyph unicode="&#xe9;" horiz-adv-x="1028" d="M76 528q0 147 29.5 252t86 169.5t138.5 94t184 29.5q238 0 338 -134t100 -423v-84h-563q4 -72 16.5 -117t35 -70.5t56 -34.5t81.5 -9q76 0 129 26.5t100 63.5l125 -193q-57 -53 -146 -89t-202 -36q-262 0 -385 130t-123 425zM272 1300l400 295l137 -237l-442 -215z M389 629h270q-4 127 -27.5 181t-107.5 54q-35 0 -59.5 -10t-39.5 -36.5t-23.5 -72t-12.5 -116.5z" />
<glyph unicode="&#xea;" horiz-adv-x="1028" d="M76 528q0 147 29.5 252t86 169.5t138.5 94t184 29.5q238 0 338 -134t100 -423v-84h-563q4 -72 16.5 -117t35 -70.5t56 -34.5t81.5 -9q76 0 129 26.5t100 63.5l125 -193q-57 -53 -146 -89t-202 -36q-262 0 -385 130t-123 425zM180 1274l254 266h166l250 -266l-88 -127 l-250 147l-242 -147zM389 629h270q-4 127 -27.5 181t-107.5 54q-35 0 -59.5 -10t-39.5 -36.5t-23.5 -72t-12.5 -116.5z" />
<glyph unicode="&#xeb;" horiz-adv-x="1028" d="M76 528q0 147 29.5 252t86 169.5t138.5 94t184 29.5q238 0 338 -134t100 -423v-84h-563q4 -72 16.5 -117t35 -70.5t56 -34.5t81.5 -9q76 0 129 26.5t100 63.5l125 -193q-57 -53 -146 -89t-202 -36q-262 0 -385 130t-123 425zM147 1313q0 66 45.5 111.5t106.5 45.5 q66 0 112 -46t46 -111q0 -66 -46.5 -110t-107.5 -44t-108.5 44t-47.5 110zM389 629h270q-4 127 -27.5 181t-107.5 54q-35 0 -59.5 -10t-39.5 -36.5t-23.5 -72t-12.5 -116.5zM573 1313q0 66 44.5 111.5t107.5 45.5q66 0 112 -46t46 -111q0 -66 -46.5 -110t-107.5 -44 q-66 0 -111 44t-45 110z" />
<glyph unicode="&#xec;" horiz-adv-x="598" d="M-37 1358l137 237l398 -295l-92 -157zM59 858v189h410v-1047h-291v829z" />
<glyph unicode="&#xed;" horiz-adv-x="598" d="M59 858v189h410v-1047h-291v829zM121 1300l399 295l137 -237l-442 -215z" />
<glyph unicode="&#xee;" horiz-adv-x="598" d="M-41 1274l254 266h166l250 -266l-88 -127l-250 147l-242 -147zM59 858v189h410v-1047h-291v829z" />
<glyph unicode="&#xef;" horiz-adv-x="598" d="M-66 1313q0 66 45.5 111.5t106.5 45.5q66 0 112 -46t46 -111q0 -66 -46.5 -110t-107.5 -44t-108.5 44t-47.5 110zM59 858v189h410v-1047h-291v829zM360 1313q0 66 44.5 111.5t107.5 45.5q66 0 112 -46t46 -111q0 -66 -46.5 -110t-107.5 -44q-66 0 -111 44t-45 110z" />
<glyph unicode="&#xf0;" horiz-adv-x="1067" d="M76 500q0 135 31.5 231t85 157.5t124 89.5t146.5 28q59 0 101 -15.5t73 -44.5q-41 113 -111 195l-207 -88l-59 149l137 60q-37 27 -76.5 50t-80.5 44l102 180q178 -72 303 -170l207 90l59 -149l-139 -60q111 -127 165 -294t54 -384q0 -166 -30.5 -279.5t-90 -184 t-144.5 -101.5t-194 -31q-217 0 -336.5 126t-119.5 401zM385 494q0 -166 32 -237t118 -71t116.5 74t30.5 240q0 164 -32 227.5t-118 63.5q-43 0 -71.5 -14.5t-46 -49.5t-23.5 -92t-6 -141z" />
<glyph unicode="&#xf1;" horiz-adv-x="1067" d="M123 0v1047h235l25 -101q59 55 128 91t167 36q135 0 203.5 -64.5t68.5 -224.5v-784h-291v719q0 76 -25.5 99.5t-70.5 23.5q-47 0 -80.5 -16.5t-70.5 -45.5v-780h-289zM164 1268q45 106 104.5 161.5t137.5 55.5q47 0 79.5 -11.5t59 -25.5t50 -25.5t52.5 -11.5 q31 0 52.5 21.5t43.5 56.5l152 -100q-45 -106 -104.5 -162t-137.5 -56q-45 0 -78.5 11.5t-60.5 26t-50.5 25.5t-51.5 11q-31 0 -52.5 -21.5t-44.5 -56.5z" />
<glyph unicode="&#xf2;" horiz-adv-x="1062" d="M76 528q0 147 30.5 251t89 169.5t142.5 95t192 29.5q217 0 336 -128t119 -425q0 -147 -30.5 -250.5t-89 -170t-142.5 -96.5t-193 -30q-217 0 -335.5 130t-118.5 425zM227 1358l138 237l397 -295l-92 -157zM387 520q0 -100 6 -164.5t23.5 -102.5t45 -52.5t70.5 -14.5 t71 15.5t44.5 54.5t22.5 105.5t6 166.5q0 104 -7 169t-23.5 101t-44.5 48t-71 12t-70.5 -13.5t-44 -51t-22.5 -103t-6 -170.5z" />
<glyph unicode="&#xf3;" horiz-adv-x="1062" d="M76 528q0 147 30.5 251t89 169.5t142.5 95t192 29.5q217 0 336 -128t119 -425q0 -147 -30.5 -250.5t-89 -170t-142.5 -96.5t-193 -30q-217 0 -335.5 130t-118.5 425zM297 1300l399 295l138 -237l-443 -215zM387 520q0 -100 6 -164.5t23.5 -102.5t45 -52.5t70.5 -14.5 t71 15.5t44.5 54.5t22.5 105.5t6 166.5q0 104 -7 169t-23.5 101t-44.5 48t-71 12t-70.5 -13.5t-44 -51t-22.5 -103t-6 -170.5z" />
<glyph unicode="&#xf4;" horiz-adv-x="1062" d="M76 528q0 147 30.5 251t89 169.5t142.5 95t192 29.5q217 0 336 -128t119 -425q0 -147 -30.5 -250.5t-89 -170t-142.5 -96.5t-193 -30q-217 0 -335.5 130t-118.5 425zM195 1274l254 266h165l250 -266l-88 -127l-250 147l-241 -147zM387 520q0 -100 6 -164.5t23.5 -102.5 t45 -52.5t70.5 -14.5t71 15.5t44.5 54.5t22.5 105.5t6 166.5q0 104 -7 169t-23.5 101t-44.5 48t-71 12t-70.5 -13.5t-44 -51t-22.5 -103t-6 -170.5z" />
<glyph unicode="&#xf5;" horiz-adv-x="1062" d="M76 528q0 147 30.5 251t89 169.5t142.5 95t192 29.5q217 0 336 -128t119 -425q0 -147 -30.5 -250.5t-89 -170t-142.5 -96.5t-193 -30q-217 0 -335.5 130t-118.5 425zM166 1268q45 106 104.5 161.5t137.5 55.5q47 0 79.5 -11.5t59 -25.5t50.5 -25.5t52 -11.5 q31 0 52.5 21.5t43.5 56.5l152 -100q-45 -106 -104.5 -162t-137.5 -56q-45 0 -78.5 11.5t-60.5 26t-50.5 25.5t-51.5 11q-31 0 -52.5 -21.5t-44.5 -56.5zM387 520q0 -100 6 -164.5t23.5 -102.5t45 -52.5t70.5 -14.5t71 15.5t44.5 54.5t22.5 105.5t6 166.5q0 104 -7 169 t-23.5 101t-44.5 48t-71 12t-70.5 -13.5t-44 -51t-22.5 -103t-6 -170.5z" />
<glyph unicode="&#xf6;" horiz-adv-x="1062" d="M76 528q0 147 30.5 251t89 169.5t142.5 95t192 29.5q217 0 336 -128t119 -425q0 -147 -30.5 -250.5t-89 -170t-142.5 -96.5t-193 -30q-217 0 -335.5 130t-118.5 425zM162 1313q0 66 45 111.5t106 45.5q66 0 112 -46t46 -111q0 -66 -46.5 -110t-107.5 -44t-108 44t-47 110 zM387 520q0 -100 6 -164.5t23.5 -102.5t45 -52.5t70.5 -14.5t71 15.5t44.5 54.5t22.5 105.5t6 166.5q0 104 -7 169t-23.5 101t-44.5 48t-71 12t-70.5 -13.5t-44 -51t-22.5 -103t-6 -170.5zM588 1313q0 66 44 111.5t107 45.5q66 0 112 -46t46 -111q0 -66 -46.5 -110 t-107.5 -44q-66 0 -110.5 44t-44.5 110z" />
<glyph unicode="&#xf7;" horiz-adv-x="1189" d="M123 489v273h944v-273h-944zM412 197q0 74 53 127t129 53t129 -53.5t53 -126.5q0 -78 -53 -131.5t-129 -53.5t-129 53.5t-53 131.5zM412 1057q0 74 53 128t129 54t129 -54.5t53 -127.5q0 -76 -53 -130.5t-129 -54.5t-129 54.5t-53 130.5z" />
<glyph unicode="&#xf8;" horiz-adv-x="1062" d="M66 -66l110 191q-49 68 -74.5 167t-25.5 236q0 147 30.5 251t89 169.5t142.5 95t192 29.5q104 0 183 -26l102 174l180 -105l-112 -192q51 -68 76.5 -167.5t25.5 -236.5q0 -147 -30.5 -250.5t-89 -170t-142.5 -96.5t-193 -30q-51 0 -96 6.5t-86 22.5l-100 -172zM387 487 l211 361q-23 10 -68 10q-43 0 -70.5 -13.5t-44 -51t-22.5 -103t-6 -170.5v-33zM463 201q27 -14 69 -15q43 0 71 15.5t44.5 54.5t22.5 105.5t6 166.5v37z" />
<glyph unicode="&#xf9;" d="M117 276v771h289v-715q0 -78 26.5 -101.5t73.5 -23.5t81 17.5t68 45.5v777h289v-1047h-235l-25 104q-29 -29 -55.5 -53t-58 -41.5t-70.5 -27t-92 -9.5q-129 0 -210 74t-81 229zM217 1358l137 237l398 -295l-93 -157z" />
<glyph unicode="&#xfa;" d="M117 276v771h289v-715q0 -78 26.5 -101.5t73.5 -23.5t81 17.5t68 45.5v777h289v-1047h-235l-25 104q-29 -29 -55.5 -53t-58 -41.5t-70.5 -27t-92 -9.5q-129 0 -210 74t-81 229zM301 1300l399 295l138 -237l-443 -215z" />
<glyph unicode="&#xfb;" d="M117 276v771h289v-715q0 -78 26.5 -101.5t73.5 -23.5t81 17.5t68 45.5v777h289v-1047h-235l-25 104q-29 -29 -55.5 -53t-58 -41.5t-70.5 -27t-92 -9.5q-129 0 -210 74t-81 229zM199 1274l254 266h165l250 -266l-88 -127l-250 147l-241 -147z" />
<glyph unicode="&#xfc;" d="M117 276v771h289v-715q0 -78 26.5 -101.5t73.5 -23.5t81 17.5t68 45.5v777h289v-1047h-235l-25 104q-29 -29 -55.5 -53t-58 -41.5t-70.5 -27t-92 -9.5q-129 0 -210 74t-81 229zM164 1313q0 66 45 111.5t106 45.5q66 0 112 -46t46 -111q0 -66 -46.5 -110t-107.5 -44 t-108 44t-47 110zM590 1313q0 66 44 111.5t107 45.5q66 0 112 -46t46 -111q0 -66 -46.5 -110t-107.5 -44q-66 0 -110.5 44t-44.5 110z" />
<glyph unicode="&#xfd;" horiz-adv-x="1003" d="M25 1047h303l129 -537q16 -66 28.5 -128.5t18.5 -113.5h2q8 51 17 110.5t30 137.5l123 531h303l-317 -1059q-35 -115 -74 -186.5t-94.5 -116.5t-132 -68t-189.5 -35l-57 236q70 10 117 23.5t79.5 34t55 50t43.5 74.5h-70zM285 1300l399 295l137 -237l-442 -215z" />
<glyph unicode="&#xfe;" horiz-adv-x="1077" d="M123 -395v1894h289v-524q33 31 96 64.5t143 33.5q84 0 148.5 -24.5t108.5 -85t67.5 -162t23.5 -254.5q0 -166 -21.5 -275.5t-64.5 -176t-107.5 -94.5t-152.5 -28q-84 0 -143 31t-98 66v-465h-289zM412 260q23 -23 56.5 -39t80.5 -16q43 0 69.5 13t43 49t22.5 99.5 t6 163.5q0 96 -5 158t-20.5 95.5t-40 46t-65.5 12.5q-49 0 -84 -17.5t-63 -42.5v-522z" />
<glyph unicode="&#xff;" horiz-adv-x="1003" d="M25 1047h303l129 -537q16 -66 28.5 -128.5t18.5 -113.5h2q8 51 17 110.5t30 137.5l123 531h303l-317 -1059q-35 -115 -74 -186.5t-94.5 -116.5t-132 -68t-189.5 -35l-57 236q70 10 117 23.5t79.5 34t55 50t43.5 74.5h-70zM135 1313q0 66 45 111.5t107 45.5 q66 0 111.5 -46t45.5 -111q0 -66 -46 -110t-107 -44t-108.5 44t-47.5 110zM561 1313q0 66 44 111.5t108 45.5q66 0 111.5 -46t45.5 -111q0 -66 -46 -110t-107 -44q-66 0 -111 44t-45 110z" />
<glyph unicode="&#x152;" horiz-adv-x="1671" d="M98 696q0 352 126 539.5t415 187.5h924v-260h-453v-297h360v-252h-360v-352h487v-262h-946q-127 0 -229.5 36t-174 118t-110.5 215t-39 327zM430 686q0 -133 14.5 -216t43 -130t72.5 -63.5t104 -16.5h139v901h-146q-59 0 -102 -18.5t-70.5 -69.5t-41 -144t-13.5 -243z " />
<glyph unicode="&#x153;" horiz-adv-x="1619" d="M76 528q0 147 29.5 251t88 169.5t142.5 95t190 29.5q207 0 301 -141q92 141 295 141q225 0 324.5 -133t99.5 -424v-84h-565q4 -72 16.5 -117t35 -71.5t56 -35.5t82.5 -9q76 0 130.5 25.5t101.5 62.5l123 -189q-59 -53 -147.5 -89t-200.5 -36q-129 0 -213 37t-136 109 q-96 -146 -303 -146q-215 0 -332.5 130t-117.5 425zM387 520q0 -100 6 -164.5t23.5 -102.5t45 -52.5t70.5 -14.5t71 15.5t44.5 54.5t22.5 105.5t6 166.5q0 104 -7 169t-23.5 101t-44.5 48t-71 12t-70.5 -13.5t-44 -51t-22.5 -103t-6 -170.5zM981 629h270q-2 127 -25.5 181 t-109.5 54q-35 0 -59.5 -10t-40 -36.5t-23.5 -72t-12 -116.5z" />
<glyph unicode="&#x178;" horiz-adv-x="1134" d="M29 1423h338l129 -315q29 -72 46 -129t29 -123q16 66 31.5 124t42.5 122l133 321h326l-389 -813v-610h-307v604zM199 1671q0 66 45 112t106 46q66 0 112 -46t46 -112t-46.5 -109.5t-107.5 -43.5t-108 44t-47 109zM625 1671q0 66 44 112t107 46q66 0 112 -46t46 -112 t-46.5 -109.5t-107.5 -43.5q-66 0 -110.5 44t-44.5 109z" />
<glyph unicode="&#x2c6;" d="M199 1274l254 266h165l250 -266l-88 -127l-250 147l-241 -147z" />
<glyph unicode="&#x2dc;" d="M170 1268q45 106 104.5 161.5t137.5 55.5q47 0 79.5 -11.5t59.5 -25.5t50.5 -25.5t51.5 -11.5q31 0 52.5 21.5t44.5 56.5l151 -100q-45 -106 -104.5 -162t-137.5 -56q-45 0 -78.5 11.5t-60 26t-50.5 25.5t-52 11q-31 0 -52.5 -21.5t-43.5 -56.5z" />
<glyph unicode="&#x2000;" horiz-adv-x="982" />
<glyph unicode="&#x2001;" horiz-adv-x="1964" />
<glyph unicode="&#x2002;" horiz-adv-x="982" />
<glyph unicode="&#x2003;" horiz-adv-x="1964" />
<glyph unicode="&#x2004;" horiz-adv-x="654" />
<glyph unicode="&#x2005;" horiz-adv-x="491" />
<glyph unicode="&#x2006;" horiz-adv-x="327" />
<glyph unicode="&#x2007;" horiz-adv-x="327" />
<glyph unicode="&#x2008;" horiz-adv-x="245" />
<glyph unicode="&#x2009;" horiz-adv-x="392" />
<glyph unicode="&#x200a;" horiz-adv-x="109" />
<glyph unicode="&#x2010;" horiz-adv-x="659" d="M94 420v291h469v-291h-469z" />
<glyph unicode="&#x2011;" horiz-adv-x="659" d="M94 420v291h469v-291h-469z" />
<glyph unicode="&#x2012;" horiz-adv-x="659" d="M94 420v291h469v-291h-469z" />
<glyph unicode="&#x2013;" horiz-adv-x="1122" d="M94 432v256h932v-256h-932z" />
<glyph unicode="&#x2014;" horiz-adv-x="1488" d="M94 432v256h1299v-256h-1299z" />
<glyph unicode="&#x2018;" horiz-adv-x="557" d="M98 1085q0 162 80 256.5t234 128.5l43 -133q-66 -23 -102 -55.5t-40 -81.5q53 -10 99.5 -51t46.5 -123q0 -72 -47 -119t-115 -47q-88 0 -143.5 60.5t-55.5 164.5z" />
<glyph unicode="&#x2019;" horiz-adv-x="557" d="M98 1305q0 72 47.5 118.5t114.5 46.5q88 0 143.5 -60t55.5 -165q0 -162 -80 -256t-234 -129l-41 135q63 23 100.5 54.5t41.5 80.5q-53 10 -100.5 51.5t-47.5 123.5z" />
<glyph unicode="&#x201a;" horiz-adv-x="557" d="M98 162q0 72 47.5 119t114.5 47q88 0 143.5 -60.5t55.5 -165.5q0 -160 -80 -255t-234 -130l-41 136q63 23 100.5 54.5t41.5 80.5q-53 10 -100.5 51t-47.5 123z" />
<glyph unicode="&#x201c;" horiz-adv-x="1026" d="M98 1085q0 162 80 256.5t234 128.5l43 -133q-66 -23 -102 -55.5t-40 -81.5q53 -10 99.5 -51t46.5 -123q0 -72 -47 -119t-115 -47q-88 0 -143.5 60.5t-55.5 164.5zM567 1085q0 162 80 256.5t234 128.5l43 -133q-133 -45 -142 -137q53 -10 99.5 -51t46.5 -123 q0 -72 -47 -119t-115 -47q-88 0 -143.5 60.5t-55.5 164.5z" />
<glyph unicode="&#x201d;" horiz-adv-x="1026" d="M98 1305q0 72 47.5 118.5t114.5 46.5q88 0 143.5 -60t55.5 -165q0 -162 -80 -256t-234 -129l-41 135q63 23 100.5 54.5t41.5 80.5q-53 10 -100.5 51.5t-47.5 123.5zM567 1305q0 72 47.5 118.5t116.5 46.5q86 0 141.5 -60t55.5 -165q0 -162 -80 -256t-234 -129l-41 135 q63 23 100.5 54.5t41.5 80.5q-53 10 -100.5 51.5t-47.5 123.5z" />
<glyph unicode="&#x201e;" horiz-adv-x="1026" d="M98 162q0 72 47.5 119t114.5 47q88 0 143.5 -60.5t55.5 -165.5q0 -160 -80 -255t-234 -130l-41 136q63 23 100.5 54.5t41.5 80.5q-53 10 -100.5 51t-47.5 123zM567 162q0 72 47.5 119t116.5 47q86 0 141.5 -60.5t55.5 -165.5q0 -160 -80 -255t-234 -130l-41 136 q63 23 100.5 54.5t41.5 80.5q-53 10 -100.5 51t-47.5 123z" />
<glyph unicode="&#x2022;" horiz-adv-x="837" d="M104 684q0 68 25 126t67 102t99 70t123 26q68 0 125 -26t99 -70t66.5 -102t24.5 -126t-24.5 -126t-66.5 -101t-99 -69t-125 -26q-66 0 -123 26t-99 69t-67 101t-25 126z" />
<glyph unicode="&#x2026;" horiz-adv-x="1572" d="M106 162q0 76 54.5 129t130.5 53t130 -53t54 -129q0 -78 -54 -132.5t-130 -54.5t-130.5 54.5t-54.5 132.5zM602 162q0 76 53.5 129t128.5 53q78 0 132.5 -53t54.5 -129q0 -78 -54.5 -132.5t-132.5 -54.5q-76 0 -129 54.5t-53 132.5zM1096 162q0 76 54 129t130 53t130 -53 t54 -129q0 -78 -54 -132.5t-130 -54.5t-130 54.5t-54 132.5z" />
<glyph unicode="&#x202f;" horiz-adv-x="392" />
<glyph unicode="&#x2039;" horiz-adv-x="677" d="M70 518l317 492l197 -140l-224 -352l224 -354l-197 -135z" />
<glyph unicode="&#x203a;" horiz-adv-x="677" d="M92 166l225 352l-223 354l195 138l317 -492l-317 -489z" />
<glyph unicode="&#x205f;" horiz-adv-x="491" />
<glyph unicode="&#x20ac;" horiz-adv-x="1216" d="M76 426v168h172v131h-172v168h192q45 236 179.5 341t345.5 105q117 0 209 -28.5t149 -75.5l-115 -217q-47 37 -105.5 57.5t-121.5 20.5q-102 0 -156.5 -44t-77.5 -159h328v-168h-344v-131h344v-168h-325q25 -123 81 -166t146 -43q74 0 134 26.5t108 67.5l127 -207 q-63 -55 -154.5 -92t-226.5 -37q-231 0 -361.5 107.5t-167.5 343.5h-188z" />
<glyph unicode="&#x2122;" horiz-adv-x="1652" d="M74 1235v188h583v-188h-182v-645h-217v645h-184zM768 590v833h268l82 -342q14 -53 18.5 -92t8.5 -71h4q4 33 9 71.5t18 91.5l79 342h283v-833h-209v301q0 92 4 174t8 121h-4q-6 -39 -19 -110.5t-36 -151.5l-65 -234h-154l-66 225q-20 72 -34.5 151t-20.5 120h-2 q2 -18 4 -52t4 -74t4 -84t2 -87v-299h-186z" />
<glyph unicode="&#x25fc;" horiz-adv-x="1044" d="M0 0v1044h1044v-1044h-1044z" />
<glyph unicode="&#xfb01;" horiz-adv-x="1103" d="M43 827v220h107v69q0 119 29.5 196t80.5 122t121 63.5t149 18.5q96 0 167 -17.5t147 -52.5l-78 -211q-53 23 -92 35t-96 12q-72 0 -106 -27.5t-34 -113.5v-94h545v-1047h-291v827h-254v-827h-288v827h-107z" />
<glyph unicode="&#xfb02;" horiz-adv-x="1155" d="M43 827v220h107v112q0 113 30.5 182.5t82.5 108.5t119 52.5t138 13.5q47 0 95.5 -4.5t91.5 -12.5h276v-1214q0 -59 14.5 -74.5t63.5 -15.5q6 0 16 2h8l31 -189q-25 -10 -70 -20.5t-98 -10.5q-82 0 -132 19.5t-77.5 60.5t-37 102.5t-9.5 147.5v973q-25 6 -53.5 9t-71.5 3 q-61 0 -95 -24.5t-34 -83.5v-137h148v-220h-148v-827h-288v827h-107z" />
<glyph unicode="&#xfb03;" horiz-adv-x="1648" d="M43 827v220h107v104q0 113 26.5 180.5t68.5 104.5t96 48t110 11q72 0 122 -10t86 -29l-63 -199q-18 8 -33.5 11.5t-44.5 3.5q-41 0 -60.5 -22.5t-19.5 -75.5v-127h254v69q0 119 30 196t81 122t121.5 63.5t150.5 18.5q96 0 167 -17.5t147 -52.5l-78 -211q-53 23 -92 35 t-97 12q-72 0 -105.5 -27.5t-33.5 -113.5v-94h545v-1047h-291v827h-254v-827h-291v827h-254v-827h-288v827h-107z" />
<glyph unicode="&#xfb04;" horiz-adv-x="1699" d="M43 827v220h107v104q0 113 25.5 180.5t67.5 104.5t94 48t105 11q72 0 122 -10t87 -29l-63 -199q-18 8 -33.5 11.5t-44.5 3.5q-37 0 -54.5 -22.5t-17.5 -75.5v-127h254v112q0 113 32 182.5t84 108.5t118.5 52.5t138.5 13.5q47 0 94 -4.5t90 -12.5h279v-1214 q0 -59 14 -74.5t64 -15.5q6 0 16 2h8l29 -189q-23 -10 -68 -20.5t-98 -10.5q-82 0 -132 19.5t-78 60.5t-37 102.5t-9 147.5v973q-25 6 -53.5 9t-71.5 3q-61 0 -95 -24.5t-34 -83.5v-137h147v-220h-147v-827h-291v827h-254v-827h-288v827h-107z" />
</font>
</defs>
</svg>
